<?xml version="1.0" encoding="utf-8"?>
<!-- Generator: Adobe Illustrator 23.0.3, SVG Export Plug-In . SVG Version: 6.00 Build 0)  -->
<svg version="1.1" xmlns="http://www.w3.org/2000/svg" xmlns:xlink="http://www.w3.org/1999/xlink" x="0px" y="0px"
	 viewBox="0 0 500 500" style="enable-background:new 0 0 500 500;" xml:space="preserve">
<style type="text/css">
	.st0{display:none;}
	.st1{display:inline;fill:#ACE296;}
	.st2{fill:#93CE78;}
	.st3{fill:#88C46C;}
	.st4{fill:#2899D5;}
	.st5{fill:#EE283B;}
	.st6{fill:#FFFFFF;}
	.st7{fill:#C2E1B7;}
	.st8{fill:#003F70;}
	.st9{fill:#FFD032;}
	.st10{fill:#CE8E62;}
	.st11{fill:#FBB03B;}
	.st12{fill:#E6E6E6;}
	.st13{fill:#8BD3DD;}
	.st14{fill:#CCCCCC;}
	.st15{fill:#6F43A8;}
	.st16{fill:#FFBF9F;}
	.st17{opacity:0.5;fill:#FFBF9F;}
	.st18{fill:#3C2415;}
	.st19{fill:#FCA57E;}
	.st20{fill:#790016;}
	.st21{fill:#F16680;}
	.st22{fill:#603913;}
	.st23{fill:#FCE2ED;}
	.st24{fill:#808285;}
	.st25{fill:#8959D3;}
	.st26{fill:#D1D3D4;}
	.st27{display:inline;}
	.st28{fill:#1C1C1B;}
</style>
<g id="BACKGROUND" class="st0">
	<rect x="0" class="st1" width="500" height="500"/>
</g>
<g id="OBJECTS">
	<ellipse class="st2" cx="250.8" cy="240.85" rx="191.11" ry="189.58"/>
	<path class="st3" d="M476.23,168.59h-86.7c-3.66,0-6.62,2.94-6.62,6.57c0,2.71,1.65,5.03,4.02,6.04h16.12
		c3.66,0,6.62,2.94,6.62,6.57c0,3.63-2.96,6.57-6.62,6.57h-1h-30.98H322.9c-3.66,0-6.62,2.94-6.62,6.57c0,3.63,2.96,6.57,6.62,6.57
		h48.17h12.91h1c3.66,0,6.62,2.94,6.62,6.57c0,3.63-2.96,6.57-6.62,6.57h-1h-8.9c-3.65,0-6.62,2.94-6.62,6.57
		c0,3.63,2.97,6.57,6.62,6.57h86.7c3.66,0,6.62-2.94,6.62-6.57c0-3.63-2.96-6.57-6.62-6.57h-32.31h-1.8c-3.66,0-6.63-2.94-6.63-6.57
		c0-3.63,2.96-6.57,6.63-6.57h1.8h28.3c3.66,0,6.63-2.94,6.63-6.57c0-3.63-2.97-6.57-6.63-6.57H447h-4.61
		c-3.66,0-6.62-2.94-6.62-6.57c0-3.63,2.96-6.57,6.62-6.57h36.46c2.36-1.01,4.01-3.33,4.01-6.04
		C482.85,171.53,479.89,168.59,476.23,168.59z"/>
	<path class="st3" d="M159.61,237.56H71.28c-3.72,0-6.75,2.99-6.75,6.69c0,2.76,1.68,5.13,4.09,6.15h16.42
		c3.73,0,6.75,2.99,6.75,6.69c0,3.7-3.02,6.69-6.75,6.69h-1.02H52.46H35.11c-3.73,0-6.75,3-6.75,6.69c0,3.7,3.02,6.69,6.75,6.69
		h17.35h13.16h1.02c3.73,0,6.75,3,6.75,6.69c0,3.7-3.02,6.69-6.75,6.69h-1.02h-9.07c-3.72,0-6.75,3-6.75,6.7
		c0,3.69,3.03,6.69,6.75,6.69h88.34c3.73,0,6.75-3,6.75-6.69c0-3.7-3.02-6.7-6.75-6.7h-32.92h-1.84c-3.73,0-6.75-3-6.75-6.69
		c0-3.7,3.02-6.69,6.75-6.69h1.84h28.83c3.73,0,6.75-3,6.75-6.69c0-3.7-3.02-6.69-6.75-6.69h-10.97h-4.7c-3.73,0-6.75-3-6.75-6.69
		c0-3.7,3.02-6.69,6.75-6.69h37.15c2.4-1.03,4.09-3.39,4.09-6.15C166.36,240.55,163.34,237.56,159.61,237.56z"/>
	<path class="st4" d="M172.22,351.04l2.56-2.54l-3.04-3.02l-2.45,2.43c-1.41-1.04-3.06-1.77-4.86-2.1v-3.33h-4.3v3.33
		c-1.8,0.33-3.45,1.06-4.86,2.1l-2.45-2.43l-3.04,3.02l2.56,2.54c-0.89,1.4-1.49,2.99-1.72,4.71h-3.88v4.27h4.11
		c0.38,1.55,1.06,2.97,1.99,4.21l-3.07,3.04l3.04,3.02l3.19-3.16c1.24,0.78,2.63,1.33,4.12,1.6v4.56h4.3v-4.56
		c1.49-0.27,2.89-0.83,4.12-1.6l3.18,3.16l3.04-3.02l-3.07-3.04c0.93-1.24,1.61-2.66,1.99-4.21h4.11v-4.27h-3.88
		C173.71,354.03,173.11,352.44,172.22,351.04z M162.29,363.22c-3.43,0-6.21-2.76-6.21-6.16c0-3.4,2.78-6.16,6.21-6.16
		c3.43,0,6.21,2.76,6.21,6.16C168.49,360.46,165.72,363.22,162.29,363.22z"/>
	<path class="st5" d="M379.53,248.09l1.63-1.61l-1.93-1.92l-1.55,1.54c-0.9-0.66-1.95-1.13-3.09-1.34v-2.11h-2.73v2.11
		c-1.14,0.21-2.19,0.68-3.09,1.34l-1.56-1.54l-1.93,1.92l1.63,1.61c-0.57,0.89-0.95,1.9-1.09,2.99h-2.46v2.71h2.61
		c0.24,0.98,0.67,1.89,1.26,2.67l-1.95,1.93l1.93,1.92l2.02-2.01c0.79,0.49,1.67,0.85,2.62,1.02v2.9h2.73v-2.9
		c0.95-0.17,1.83-0.53,2.62-1.02l2.02,2.01l1.93-1.92l-1.95-1.93c0.59-0.79,1.02-1.69,1.26-2.67h2.61v-2.71h-2.46
		C380.48,249.99,380.1,248.97,379.53,248.09z M373.22,255.83c-2.18,0-3.95-1.75-3.95-3.92c0-2.16,1.77-3.91,3.95-3.91
		c2.18,0,3.95,1.75,3.95,3.91C377.17,254.07,375.4,255.83,373.22,255.83z"/>
	<path class="st4" d="M97.05,92.75l2.27-2.25l-2.69-2.67l-2.17,2.15c-1.25-0.92-2.71-1.57-4.3-1.86v-2.95h-3.81v2.95
		c-1.59,0.29-3.06,0.94-4.31,1.86l-2.17-2.15l-2.69,2.67l2.27,2.25c-0.79,1.24-1.32,2.65-1.52,4.17h-3.43v3.78h3.64
		c0.33,1.37,0.94,2.63,1.76,3.72l-2.72,2.69l2.69,2.67l2.82-2.8c1.1,0.69,2.33,1.18,3.65,1.42v4.04h3.81v-4.04
		c1.32-0.24,2.56-0.73,3.65-1.42l2.82,2.8l2.69-2.67l-2.72-2.69c0.82-1.09,1.43-2.36,1.76-3.72h3.64v-3.78h-3.43
		C98.37,95.4,97.84,93.99,97.05,92.75z M88.26,103.53c-3.04,0-5.5-2.44-5.5-5.46c0-3.01,2.46-5.46,5.5-5.46
		c3.04,0,5.5,2.44,5.5,5.46C93.76,101.09,91.29,103.53,88.26,103.53z"/>
	<path class="st6" d="M146.6,140.48l2.75-2.72l-3.26-3.23l-2.62,2.6c-1.51-1.12-3.28-1.9-5.21-2.26v-3.56h-4.61v3.56
		c-1.93,0.35-3.7,1.14-5.21,2.26l-2.62-2.6l-3.26,3.23l2.75,2.72c-0.96,1.5-1.6,3.21-1.84,5.04h-4.15v4.57h4.4
		c0.4,1.66,1.14,3.18,2.13,4.51l-3.29,3.26l3.26,3.23l3.41-3.39c1.33,0.83,2.82,1.43,4.42,1.72v4.88h4.61v-4.88
		c1.6-0.29,3.09-0.89,4.42-1.72l3.41,3.39l3.26-3.23l-3.29-3.26c0.99-1.33,1.73-2.85,2.13-4.51h4.4v-4.57h-4.15
		C148.19,143.68,147.55,141.97,146.6,140.48z M135.95,153.53c-3.68,0-6.65-2.96-6.65-6.6c0-3.64,2.98-6.6,6.65-6.6
		c3.68,0,6.65,2.96,6.65,6.6C142.6,150.57,139.63,153.53,135.95,153.53z"/>
	<path class="st7" d="M384.64,63.41l2.39-2.37l-2.83-2.81l-2.28,2.26c-1.31-0.97-2.85-1.65-4.53-1.96v-3.1h-4v3.1
		c-1.67,0.31-3.21,0.99-4.53,1.96l-2.28-2.26l-2.83,2.81l2.39,2.37c-0.83,1.3-1.39,2.79-1.6,4.38h-3.61v3.97h3.82
		c0.35,1.44,0.99,2.77,1.85,3.92l-2.86,2.83l2.83,2.81l2.97-2.94c1.15,0.72,2.45,1.24,3.84,1.49v4.24h4v-4.24
		c1.39-0.25,2.69-0.77,3.84-1.49l2.97,2.94l2.83-2.81l-2.86-2.83c0.86-1.15,1.5-2.48,1.85-3.92h3.82v-3.97h-3.61
		C386.02,66.2,385.46,64.71,384.64,63.41z M375.39,74.75c-3.19,0-5.78-2.57-5.78-5.74c0-3.17,2.59-5.73,5.78-5.73
		c3.19,0,5.78,2.57,5.78,5.73C381.17,72.18,378.58,74.75,375.39,74.75z"/>
	<path class="st6" d="M333.88,141.44l2.39-2.37l-2.83-2.81l-2.28,2.26c-1.31-0.97-2.85-1.65-4.53-1.96v-3.1h-4v3.1
		c-1.67,0.31-3.21,0.99-4.53,1.96l-2.28-2.26l-2.83,2.81l2.39,2.37c-0.83,1.3-1.39,2.79-1.6,4.38h-3.61v3.97h3.82
		c0.35,1.44,0.99,2.77,1.85,3.92l-2.86,2.83l2.83,2.81l2.97-2.94c1.15,0.72,2.45,1.24,3.84,1.49v4.24h4v-4.24
		c1.39-0.25,2.69-0.77,3.84-1.49l2.97,2.94l2.83-2.81l-2.86-2.83c0.87-1.15,1.5-2.48,1.85-3.92h3.82v-3.97h-3.61
		C335.27,144.22,334.71,142.74,333.88,141.44z M324.63,152.78c-3.19,0-5.78-2.57-5.78-5.74c0-3.17,2.59-5.73,5.78-5.73
		c3.19,0,5.78,2.57,5.78,5.73C330.41,150.21,327.82,152.78,324.63,152.78z"/>
	<path class="st7" d="M339.54,328.13l2.39-2.37l-2.83-2.81l-2.28,2.26c-1.31-0.97-2.85-1.65-4.53-1.96v-3.1h-4v3.1
		c-1.67,0.31-3.21,0.99-4.53,1.96l-2.28-2.26l-2.83,2.81l2.39,2.37c-0.83,1.3-1.39,2.79-1.6,4.38h-3.61v3.97h3.82
		c0.35,1.44,0.99,2.76,1.85,3.92l-2.86,2.83l2.83,2.81l2.97-2.94c1.15,0.72,2.45,1.24,3.84,1.49v4.24h4v-4.24
		c1.39-0.25,2.69-0.77,3.84-1.49l2.97,2.94l2.83-2.81l-2.86-2.83c0.86-1.15,1.5-2.48,1.85-3.92h3.82v-3.97h-3.61
		C340.93,330.92,340.37,329.43,339.54,328.13z M330.29,339.47c-3.19,0-5.78-2.57-5.78-5.74c0-3.17,2.59-5.73,5.78-5.73
		c3.19,0,5.78,2.57,5.78,5.73C336.07,336.9,333.49,339.47,330.29,339.47z"/>
	<g>
		<g>
			<path class="st4" d="M285.64,42.78h-49.75h-13.81c-0.91,0-1.65,0.73-1.65,1.63v87.41c0,0.9,0.74,1.63,1.65,1.63h13.81h49.75
				c0.91,0,1.65-0.73,1.65-1.63V44.42C287.29,43.51,286.55,42.78,285.64,42.78z"/>
			<g>
				<path class="st8" d="M220.43,44.42v87.41c0,0.9,0.74,1.63,1.65,1.63h13.81V42.78h-13.81C221.17,42.78,220.43,43.51,220.43,44.42
					z"/>
			</g>
			<g>
				<path class="st6" d="M225.26,47.65h-10.28c-0.8,0-1.45,0.65-1.45,1.44v1.6c0,0.8,0.65,1.44,1.45,1.44h10.28
					c0.8,0,1.44-0.65,1.44-1.44v-1.6C226.7,48.29,226.06,47.65,225.26,47.65z"/>
				<path class="st6" d="M225.26,58.54h-10.28c-0.8,0-1.45,0.65-1.45,1.44v1.6c0,0.8,0.65,1.44,1.45,1.44h10.28
					c0.8,0,1.44-0.65,1.44-1.44v-1.6C226.7,59.18,226.06,58.54,225.26,58.54z"/>
				<path class="st6" d="M225.26,69.43h-10.28c-0.8,0-1.45,0.65-1.45,1.44v1.6c0,0.8,0.65,1.44,1.45,1.44h10.28
					c0.8,0,1.44-0.64,1.44-1.44v-1.6C226.7,70.08,226.06,69.43,225.26,69.43z"/>
				<path class="st6" d="M225.26,80.32h-10.28c-0.8,0-1.45,0.65-1.45,1.44v1.6c0,0.8,0.65,1.44,1.45,1.44h10.28
					c0.8,0,1.44-0.64,1.44-1.44v-1.6C226.7,80.97,226.06,80.32,225.26,80.32z"/>
				<path class="st6" d="M225.26,91.22h-10.28c-0.8,0-1.45,0.65-1.45,1.44v1.6c0,0.8,0.65,1.44,1.45,1.44h10.28
					c0.8,0,1.44-0.64,1.44-1.44v-1.6C226.7,91.86,226.06,91.22,225.26,91.22z"/>
				<path class="st6" d="M225.26,102.11h-10.28c-0.8,0-1.45,0.65-1.45,1.44v1.6c0,0.8,0.65,1.44,1.45,1.44h10.28
					c0.8,0,1.44-0.65,1.44-1.44v-1.6C226.7,102.76,226.06,102.11,225.26,102.11z"/>
				<path class="st6" d="M225.26,113h-10.28c-0.8,0-1.45,0.65-1.45,1.44v1.6c0,0.8,0.65,1.44,1.45,1.44h10.28
					c0.8,0,1.44-0.64,1.44-1.44v-1.6C226.7,113.65,226.06,113,225.26,113z"/>
				<path class="st6" d="M225.26,123.9h-10.28c-0.8,0-1.45,0.65-1.45,1.44v1.6c0,0.8,0.65,1.44,1.45,1.44h10.28
					c0.8,0,1.44-0.65,1.44-1.44v-1.6C226.7,124.54,226.06,123.9,225.26,123.9z"/>
			</g>
		</g>
		<g>
			<path class="st6" d="M259.36,73.09c-9.8,0-16.29,7.65-16.29,16.46c0,8.47,6.36,13.61,13.59,13.61c3.14,0,5.4-0.39,8.02-1.56
				l-0.78-2.46c-1.74,0.87-4.14,1.34-6.36,1.34c-6.49,0-11.11-4.06-11.11-11.32c0-8.3,5.8-13.44,12.5-13.44
				c6.75,0,10.41,4.32,10.41,9.98c0,5.01-2.35,7.39-4.22,7.3c-1.22-0.04-1.53-1.21-1.09-3.76l1.31-8.04
				c-1.09-0.56-3.27-1.04-5.18-1.04c-6.27,0-10.24,4.75-10.24,10.07c0,3.54,2.09,5.66,4.88,5.66c2.35,0,4.27-1.17,5.66-3.33h0.09
				c0.22,2.25,1.7,3.33,3.75,3.33c4.7,0,8.28-3.98,8.28-10.33C272.56,78.31,267.07,73.09,259.36,73.09z M260.19,87.86
				c-0.39,2.5-2.09,4.54-3.7,4.54c-1.44,0-2.18-1.04-2.18-2.68c0-3.33,2.27-6.14,5.14-6.14c0.52,0,1,0.08,1.35,0.17L260.19,87.86z"
				/>
		</g>
	</g>
	<g>
		<path class="st9" d="M456.9,221.83h-41.99c-5.11,0-9.3,4.18-9.3,9.3v27.17c0,5.13,4.16,9.28,9.28,9.28v17.18l17.32-17.18h24.67
			c5.11,0,9.3-4.18,9.3-9.3v-27.17C466.19,225.99,462.03,221.83,456.9,221.83z"/>
		<g>
			<path class="st6" d="M422.06,239.23c-2.27,0-4.11,1.82-4.11,4.08c0,2.25,1.84,4.08,4.11,4.08c2.27,0,4.11-1.83,4.11-4.08
				C426.17,241.05,424.33,239.23,422.06,239.23z"/>
			<path class="st6" d="M435.9,239.23c-2.27,0-4.11,1.82-4.11,4.08c0,2.25,1.84,4.08,4.11,4.08c2.27,0,4.11-1.83,4.11-4.08
				C440.01,241.05,438.17,239.23,435.9,239.23z"/>
			<path class="st6" d="M449.73,239.23c-2.27,0-4.11,1.82-4.11,4.08c0,2.25,1.84,4.08,4.11,4.08c2.27,0,4.11-1.83,4.11-4.08
				C453.84,241.05,452,239.23,449.73,239.23z"/>
		</g>
	</g>
	<g>
		<polygon class="st10" points="49.29,211.45 87.75,249.59 126.2,211.45 87.75,173.31 		"/>
		<polygon class="st6" points="57.94,177.14 57.94,250.27 115.73,250.27 115.73,187 105.72,177.14 		"/>
		<polygon class="st11" points="49.07,256.36 125.97,256.36 125.97,233.91 49.29,233.91 		"/>
		<polygon class="st9" points="49.07,211.45 49.07,256.36 87.52,233.91 77.56,228.09 		"/>
		<polygon class="st9" points="87.52,233.91 125.97,256.36 125.97,211.45 97.47,228.09 		"/>
		<polygon class="st12" points="105.72,187 115.73,187 105.72,177.07 		"/>
		<g>
			<path class="st13" d="M108.22,196.33H68.29c-0.75,0-1.37,0.61-1.37,1.35c0,0.75,0.61,1.35,1.37,1.35h39.93
				c0.75,0,1.37-0.61,1.37-1.35C109.59,196.93,108.98,196.33,108.22,196.33z"/>
		</g>
		<g>
			<path class="st13" d="M108.22,204.45H68.29c-0.75,0-1.37,0.61-1.37,1.35c0,0.75,0.61,1.35,1.37,1.35h39.93
				c0.75,0,1.37-0.61,1.37-1.35C109.59,205.06,108.98,204.45,108.22,204.45z"/>
		</g>
		<g>
			<path class="st13" d="M108.22,212.58H68.29c-0.75,0-1.37,0.61-1.37,1.36c0,0.75,0.61,1.35,1.37,1.35h39.93
				c0.75,0,1.37-0.61,1.37-1.35C109.59,213.18,108.98,212.58,108.22,212.58z"/>
		</g>
	</g>
	<g>
		<path class="st6" d="M422.71,120.75h-65.74c-1.43,0-2.59,1.15-2.59,2.57v72.72c0,1.42,1.16,2.57,2.59,2.57h65.74
			c1.43,0,2.59-1.15,2.59-2.57v-72.72C425.3,121.9,424.14,120.75,422.71,120.75z"/>
		<g>
			<line class="st14" x1="367.08" y1="174.3" x2="412.61" y2="174.3"/>
			<path class="st14" d="M412.61,173.01h-45.53c-0.86,0-1.56,0.57-1.56,1.28c0,0.71,0.7,1.28,1.56,1.28h45.53
				c0.86,0,1.56-0.57,1.56-1.28C414.16,173.59,413.47,173.01,412.61,173.01z"/>
		</g>
		<g>
			<line class="st14" x1="367.08" y1="182.42" x2="412.61" y2="182.42"/>
			<path class="st14" d="M412.61,181.14h-45.53c-0.86,0-1.56,0.57-1.56,1.28c0,0.71,0.7,1.28,1.56,1.28h45.53
				c0.86,0,1.56-0.57,1.56-1.28C414.16,181.71,413.47,181.14,412.61,181.14z"/>
		</g>
		<g>
			<line class="st14" x1="367.08" y1="190.54" x2="412.61" y2="190.54"/>
			<path class="st14" d="M412.61,189.26h-45.53c-0.86,0-1.56,0.57-1.56,1.28c0,0.71,0.7,1.28,1.56,1.28h45.53
				c0.86,0,1.56-0.57,1.56-1.28C414.16,189.84,413.47,189.26,412.61,189.26z"/>
		</g>
		<rect x="361.72" y="126.13" class="st14" width="56.25" height="41.48"/>
		<g>
			<g>
				<path class="st5" d="M389.84,130.19c-3.73,0-6.76,3-6.76,6.7c0,3.7,3.02,6.7,6.76,6.7c3.73,0,6.75-3,6.75-6.7
					C396.6,133.19,393.57,130.19,389.84,130.19z"/>
				<g>
					<path class="st5" d="M389.84,145.77c-10.4,0-18.93,7.9-19.84,17.99h39.67C408.77,153.67,400.24,145.77,389.84,145.77z"/>
				</g>
			</g>
		</g>
	</g>
	<g>
		<path class="st5" d="M166.48,67.17c-10.98,0-19.89,8.83-19.89,19.73c0,22.89,19.89,39.14,19.89,39.14s19.89-15.53,19.89-39.14
			C186.37,76,177.46,67.17,166.48,67.17z"/>
		<path class="st6" d="M166.48,76.71c-6.15,0-11.14,4.94-11.14,11.05c0,6.1,4.99,11.05,11.14,11.05c6.15,0,11.14-4.95,11.14-11.05
			C177.61,81.65,172.63,76.71,166.48,76.71z"/>
	</g>
	<g>
		<path class="st4" d="M447.27,298.74c-8.01,0-14.51,6.44-14.51,14.39c0,16.69,14.51,28.54,14.51,28.54s14.51-11.32,14.51-28.54
			C461.78,305.18,455.29,298.74,447.27,298.74z"/>
		<path class="st6" d="M447.27,305.7c-4.49,0-8.12,3.61-8.12,8.06c0,4.45,3.64,8.06,8.12,8.06c4.49,0,8.12-3.61,8.12-8.06
			C455.4,309.31,451.76,305.7,447.27,305.7z"/>
	</g>
	<g>
		<ellipse class="st5" cx="97.36" cy="326.58" rx="34.29" ry="34.01"/>
		<g>
			<g>
				<path class="st6" d="M109.16,317.79H85.7c-1,0-1.82,0.81-1.82,1.8v23.87c0,1,0.81,1.8,1.82,1.8h23.46c1,0,1.82-0.81,1.82-1.8
					v-23.87C110.98,318.59,110.17,317.79,109.16,317.79z M107.35,341.66H87.52v-20.27h19.83V341.66z"/>
			</g>
			<g>
				<path class="st6" d="M95.8,303.78l-17.25,17.12c-0.95,0.94-0.95,2.46,0,3.39c0.47,0.47,1.09,0.7,1.71,0.7
					c0.62,0,1.24-0.23,1.71-0.7l17.25-17.11c0.95-0.94,0.95-2.46,0-3.4C98.28,302.84,96.75,302.84,95.8,303.78z"/>
			</g>
			<g>
				<path class="st6" d="M98.92,303.78c-0.95-0.94-2.48-0.94-3.42,0c-0.94,0.94-0.94,2.46,0,3.4l17.25,17.11
					c0.47,0.47,1.09,0.7,1.71,0.7c0.62,0,1.24-0.23,1.71-0.7c0.95-0.94,0.95-2.46,0-3.39L98.92,303.78z"/>
			</g>
			<g>
				<path class="st6" d="M98.95,326.25h-2.19c-3.01,0-5.45,2.42-5.45,5.4v8.21c0,2.98,2.44,5.41,5.45,5.41h2.19
					c3,0,5.45-2.42,5.45-5.41v-8.21C104.39,328.67,101.95,326.25,98.95,326.25z M100.76,339.86c0,0.99-0.81,1.8-1.81,1.8h-2.19
					c-1,0-1.82-0.81-1.82-1.8v-8.21c0-0.99,0.81-1.8,1.82-1.8h2.19c1,0,1.81,0.81,1.81,1.8V339.86z"/>
			</g>
		</g>
	</g>
	<g>
		<ellipse class="st9" cx="333.69" cy="88.12" rx="17.47" ry="17.33"/>
		<g>
			<path class="st6" d="M333,91.74c-3.5,0-3.5,4.86,0,4.86C336.57,96.6,336.55,91.74,333,91.74z"/>
			<path class="st6" d="M333.12,78.92c-3.57,0-6.85,1.98-6.47,5.8h4.4c0-1.44,0.98-1.83,2.07-1.83c1.25,0,1.85,0.72,1.83,1.49
				c-0.02,0.55-0.4,0.94-1.2,1.41c-1.37,0.79-3.05,1.64-3.22,4.98h4.85c0.08-3.17,4.63-2.85,4.65-6.45
				C340.05,80.51,336.7,78.92,333.12,78.92z"/>
		</g>
	</g>
	<path class="st6" d="M341.95,391.27l4.72,0.02c1.06,0.01,1.92-0.85,1.91-1.91c0-1.06-0.87-1.92-1.93-1.93l-4.73-0.02l-0.02-4.73
		c-0.01-1.06-0.87-1.92-1.93-1.93c-1.06,0-1.92,0.85-1.91,1.91l0.02,4.72l-4.72-0.02c-1.06,0-1.92,0.85-1.91,1.91
		c0.01,1.06,0.87,1.93,1.93,1.93l4.72,0.02l0.02,4.72c0,1.06,0.87,1.93,1.93,1.93c1.06,0.01,1.92-0.85,1.91-1.91L341.95,391.27z"/>
	<g>
		<g>
			<path class="st5" d="M389.3,351.98v-11.38h10.31c-0.01,0.41-0.02,0.83-0.04,1.24l-0.01,0.43c-0.01,0.26-0.01,0.52-0.03,0.78
				c-0.06,1-0.14,1.98-0.24,2.95l-0.03,0.39c-0.12,1.05-0.27,2.13-0.45,3.22c-0.04,0.22-0.08,0.43-0.12,0.64l-0.08,0.42
				c-0.08,0.44-0.17,0.87-0.26,1.3H389.3z"/>
			<path class="st5" d="M397.6,355L397.6,355c-0.08,0.29-0.16,0.57-0.25,0.84c-0.07,0.22-0.14,0.44-0.21,0.66
				c-0.09,0.26-0.18,0.52-0.27,0.78l-0.23,0.63c-0.09,0.25-0.19,0.49-0.29,0.73l-0.06,0.14c-0.06,0.15-0.12,0.3-0.18,0.45
				c-0.09,0.22-0.19,0.43-0.32,0.71l-0.24,0.53c-0.13,0.28-0.27,0.55-0.41,0.82c-0.12,0.22-0.24,0.44-0.39,0.72
				c-0.12,0.22-0.25,0.44-0.37,0.64l-0.36,0.56c-0.09,0.14-0.18,0.28-0.27,0.41c-0.08,0.11-0.16,0.22-0.24,0.32l-0.07,0.09
				c-0.12,0.16-0.23,0.31-0.35,0.45c-0.1,0.13-0.21,0.25-0.31,0.37c-0.12,0.14-0.24,0.27-0.35,0.39c-0.11,0.11-0.21,0.22-0.32,0.32
				c-0.12,0.12-0.24,0.23-0.36,0.34c-0.11,0.09-0.21,0.18-0.32,0.27c-0.12,0.1-0.25,0.19-0.42,0.32c-0.09,0.06-0.18,0.13-0.27,0.18
				c-0.13,0.08-0.26,0.16-0.47,0.27c-0.07,0.04-0.14,0.08-0.22,0.12c-0.14,0.07-0.28,0.12-0.42,0.18l-0.11,0.04
				c-0.05,0.02-0.1,0.04-0.16,0.06c-0.02,0.01-0.04,0.01-0.07,0.02v-12.73h8.4C397.66,354.76,397.63,354.88,397.6,355z"/>
			<path class="st5" d="M395.43,365.81l0.09-0.11c0.32-0.42,0.63-0.88,0.94-1.36l0.22-0.36c0.23-0.37,0.45-0.76,0.67-1.17l0.25-0.48
				c0.21-0.42,0.42-0.86,0.63-1.31l0.19-0.41c0.26-0.59,0.51-1.2,0.74-1.85l0.11-0.31c0.19-0.54,0.38-1.09,0.56-1.66
				c0.06-0.19,0.12-0.38,0.2-0.67c0.14-0.48,0.28-0.97,0.41-1.48l0.01-0.04h11.29c-3.95,6.11-10.07,10.45-17.1,12.15
				C394.88,366.5,395.14,366.19,395.43,365.81z"/>
			<path class="st5" d="M416.23,340.61c-0.19,3.95-1.21,7.86-2.98,11.38h-12.2c0.03-0.15,0.05-0.29,0.08-0.44l0.17-0.89
				c0.04-0.23,0.09-0.45,0.13-0.68c0.15-0.91,0.28-1.83,0.39-2.77l0.03-0.25c0.02-0.11,0.03-0.23,0.04-0.34
				c0.12-1.11,0.22-2.28,0.28-3.46c0.01-0.2,0.02-0.4,0.02-0.6l0.03-0.76c0.02-0.39,0.03-0.79,0.05-1.18H416.23z"/>
			<path class="st5" d="M401.05,326.58h12.2c1.77,3.51,2.79,7.43,2.98,11.38h-13.96c-0.01-0.4-0.03-0.79-0.05-1.19l-0.03-0.79
				c-0.01-0.19-0.01-0.38-0.02-0.57c-0.07-1.18-0.16-2.35-0.28-3.46c-0.01-0.11-0.03-0.23-0.04-0.34l-0.03-0.24
				c-0.11-0.94-0.24-1.87-0.39-2.78c-0.04-0.23-0.08-0.46-0.13-0.69l-0.17-0.89C401.11,326.87,401.08,326.73,401.05,326.58z"/>
			<path class="st5" d="M399.55,336.29l0.01,0.43c0.02,0.41,0.03,0.82,0.04,1.24H389.3v-11.38h9.04c0.09,0.43,0.18,0.87,0.26,1.31
				l0.08,0.42c0.04,0.21,0.09,0.42,0.12,0.64c0.18,1.09,0.33,2.17,0.45,3.23l0.03,0.38c0.1,0.98,0.19,1.96,0.24,2.96
				C399.54,335.77,399.54,336.03,399.55,336.29z"/>
			<path class="st5" d="M400.44,323.93l-0.01-0.04c-0.13-0.5-0.27-0.99-0.41-1.47l-0.03-0.11c-0.06-0.19-0.11-0.38-0.17-0.56
				c-0.18-0.57-0.36-1.12-0.56-1.66l-0.11-0.31c-0.24-0.64-0.49-1.25-0.74-1.85l-0.18-0.4c-0.2-0.45-0.41-0.88-0.63-1.31
				c-0.08-0.16-0.17-0.32-0.25-0.48c-0.22-0.4-0.44-0.79-0.67-1.16l-0.22-0.36c-0.3-0.48-0.62-0.93-0.94-1.36l-0.13-0.16
				c-0.25-0.32-0.5-0.62-0.76-0.91c7.04,1.7,13.16,6.04,17.11,12.15H400.44z"/>
			<path class="st5" d="M390.06,311.51l0.26,0.14c0.14,0.08,0.29,0.16,0.43,0.25c0.09,0.06,0.19,0.13,0.28,0.2
				c0.14,0.1,0.27,0.2,0.4,0.3c0.1,0.08,0.2,0.17,0.29,0.25c0.13,0.12,0.26,0.24,0.39,0.37c0.1,0.1,0.2,0.2,0.3,0.3
				c0.13,0.13,0.25,0.27,0.37,0.42c0.1,0.11,0.2,0.23,0.29,0.34c0.12,0.15,0.25,0.32,0.37,0.48l0.07,0.09
				c0.07,0.1,0.15,0.19,0.22,0.29c0.12,0.17,0.23,0.35,0.37,0.56l0.09,0.14c0.06,0.09,0.11,0.17,0.17,0.26
				c0.15,0.24,0.3,0.5,0.44,0.77c0.1,0.17,0.19,0.35,0.29,0.53c0.15,0.29,0.3,0.57,0.44,0.88l0.26,0.58c0.1,0.22,0.2,0.43,0.29,0.66
				l0.26,0.65c0.09,0.22,0.18,0.45,0.26,0.68l0.23,0.63c0.09,0.26,0.18,0.52,0.27,0.78l0.21,0.66c0.09,0.28,0.17,0.56,0.25,0.84
				c0.03,0.12,0.07,0.24,0.1,0.36h-8.4V311.2c0.03,0.01,0.05,0.02,0.08,0.02l0.21,0.08C389.74,311.37,389.91,311.43,390.06,311.51z"
				/>
			<path class="st5" d="M373.67,340.61c0.01,0.4,0.03,0.79,0.05,1.19l0.03,0.78c0.01,0.19,0.01,0.39,0.02,0.58
				c0.07,1.2,0.16,2.36,0.28,3.45c0.01,0.12,0.03,0.24,0.05,0.36l0.04,0.27c0.11,0.92,0.23,1.84,0.38,2.73
				c0.04,0.24,0.08,0.47,0.13,0.7l0.16,0.89c0.03,0.14,0.05,0.29,0.08,0.43h-12.2c-1.77-3.52-2.79-7.43-2.98-11.38H373.67z"/>
			<path class="st5" d="M359.71,337.96c0.19-3.94,1.21-7.86,2.98-11.38h12.2c-0.03,0.15-0.05,0.3-0.08,0.46l-0.16,0.84
				c-0.05,0.24-0.09,0.48-0.13,0.72c-0.15,0.9-0.27,1.81-0.38,2.73l-0.03,0.25c-0.02,0.12-0.04,0.25-0.05,0.37
				c-0.12,1.09-0.22,2.25-0.28,3.45c-0.01,0.19-0.02,0.39-0.02,0.58l-0.03,0.78c-0.02,0.4-0.04,0.79-0.05,1.19H359.71z"/>
			<path class="st5" d="M376.39,342.37l-0.01-0.44c-0.02-0.44-0.03-0.88-0.04-1.32h10.3v11.38h-9.03c-0.1-0.46-0.19-0.93-0.27-1.39
				l-0.08-0.41c-0.04-0.18-0.07-0.36-0.1-0.55c-0.18-1.09-0.33-2.18-0.45-3.24l-0.03-0.29c-0.11-1.02-0.19-2.05-0.25-3.06
				C376.41,342.82,376.4,342.59,376.39,342.37z"/>
			<path class="st5" d="M375.5,354.64l0.03,0.09c0.12,0.47,0.25,0.94,0.38,1.39c0.07,0.24,0.14,0.49,0.22,0.73
				c0.17,0.54,0.35,1.06,0.53,1.57l0.13,0.39c0.23,0.63,0.48,1.24,0.73,1.82l0.21,0.45c0.2,0.43,0.4,0.85,0.6,1.25
				c0.09,0.18,0.18,0.35,0.27,0.52c0.21,0.39,0.42,0.76,0.64,1.11l0.25,0.41c0.3,0.47,0.61,0.92,0.92,1.33l0.18,0.22
				c0.24,0.3,0.48,0.6,0.73,0.87c-7.04-1.7-13.16-6.04-17.11-12.15H375.5z"/>
			<path class="st5" d="M385.88,367.06c-0.07-0.03-0.14-0.07-0.29-0.16c-0.14-0.07-0.27-0.15-0.4-0.23c-0.1-0.07-0.2-0.14-0.3-0.21
				c-0.13-0.09-0.26-0.19-0.39-0.29c-0.1-0.08-0.2-0.17-0.31-0.26c-0.13-0.11-0.26-0.23-0.38-0.35c-0.1-0.1-0.2-0.2-0.3-0.3
				c-0.13-0.13-0.25-0.28-0.44-0.49c-0.08-0.09-0.15-0.18-0.23-0.27c-0.13-0.16-0.26-0.33-0.43-0.57c-0.07-0.1-0.15-0.19-0.22-0.3
				c-0.14-0.2-0.28-0.41-0.42-0.63l-0.21-0.33c-0.2-0.33-0.4-0.67-0.61-1.06c-0.2-0.37-0.4-0.76-0.59-1.16l-0.15-0.34
				c-0.14-0.3-0.27-0.59-0.4-0.91l-0.18-0.45c-0.12-0.29-0.23-0.59-0.35-0.89l-0.18-0.5c-0.11-0.3-0.21-0.61-0.32-0.92
				c-0.06-0.17-0.11-0.35-0.17-0.54c-0.1-0.32-0.2-0.64-0.29-0.98l-0.08-0.3h8.4v12.73c-0.02-0.01-0.04-0.01-0.07-0.02l-0.25-0.1
				C386.17,367.19,386.03,367.13,385.88,367.06z"/>
			<path class="st5" d="M380.53,312.73l-0.11,0.14c-0.32,0.42-0.62,0.86-0.92,1.33c-0.06,0.09-0.11,0.19-0.17,0.28l-0.08,0.13
				c-0.22,0.36-0.43,0.73-0.64,1.11c-0.09,0.17-0.18,0.35-0.28,0.52c-0.21,0.4-0.4,0.82-0.6,1.25l-0.21,0.46
				c-0.25,0.58-0.5,1.19-0.73,1.82l-0.13,0.39c-0.18,0.51-0.36,1.03-0.53,1.57c-0.07,0.22-0.14,0.45-0.22,0.73
				c-0.13,0.45-0.26,0.92-0.38,1.39l-0.03,0.09h-11.29c3.95-6.11,10.07-10.45,17.11-12.15
				C381.07,312.06,380.82,312.35,380.53,312.73z"/>
			<path class="st5" d="M378.33,323.63c0.1-0.33,0.19-0.66,0.29-0.98l0.17-0.54c0.1-0.31,0.21-0.62,0.31-0.92l0.18-0.5
				c0.11-0.31,0.23-0.6,0.35-0.89l0.18-0.44c0.13-0.32,0.27-0.62,0.41-0.92l0.15-0.32c0.38-0.79,0.78-1.54,1.2-2.22l0.19-0.3
				c0.14-0.23,0.29-0.45,0.44-0.66c0.06-0.08,0.12-0.16,0.18-0.24l0.07-0.1c0.13-0.18,0.27-0.36,0.4-0.53
				c0.08-0.1,0.16-0.19,0.27-0.32c0.13-0.15,0.26-0.3,0.4-0.44c0.09-0.1,0.19-0.19,0.28-0.28c0.13-0.13,0.27-0.26,0.41-0.38
				c0.09-0.08,0.18-0.16,0.28-0.24c0.14-0.11,0.28-0.22,0.43-0.33c0.08-0.06,0.17-0.12,0.26-0.18c0.15-0.1,0.3-0.18,0.53-0.31
				l0.16-0.08c0.17-0.08,0.33-0.15,0.5-0.21l0.19-0.07c0.03-0.01,0.05-0.02,0.08-0.03v12.73h-8.4L378.33,323.63z"/>
			<path class="st5" d="M376.38,336.64l0.01-0.44c0.01-0.23,0.01-0.45,0.03-0.67c0.06-1.02,0.14-2.03,0.25-3.03l0.03-0.32
				c0.12-1.06,0.27-2.15,0.45-3.24c0.03-0.19,0.07-0.38,0.11-0.56l0.08-0.4c0.09-0.47,0.18-0.93,0.27-1.39h9.03v11.38h-10.3
				C376.35,337.52,376.36,337.07,376.38,336.64z"/>
		</g>
		<path class="st4" d="M406.65,300.15c-7.36,0-13.32,5.92-13.32,13.21c0,7.29,5.96,13.21,13.32,13.21c7.36,0,13.32-5.92,13.32-13.21
			C419.97,306.07,414.01,300.15,406.65,300.15z"/>
		<g>
			<path class="st6" d="M404.34,318.4h-2.96v-5.7c0-0.69,0.01-1.33,0.04-1.9c-0.18,0.22-0.41,0.45-0.68,0.69l-1.22,1.01l-1.51-1.86
				l3.7-3.01h2.62V318.4z"/>
			<path class="st6" d="M414.55,313.03c0,1.91-0.32,3.3-0.96,4.19c-0.64,0.89-1.62,1.33-2.93,1.33c-1.29,0-2.26-0.46-2.91-1.39
				c-0.65-0.93-0.98-2.3-0.98-4.13c0-1.92,0.32-3.32,0.96-4.22c0.64-0.89,1.62-1.34,2.93-1.34c1.28,0,2.25,0.47,2.91,1.4
				C414.23,309.8,414.55,311.19,414.55,313.03z M409.67,313.03c0,1.22,0.08,2.06,0.23,2.51c0.15,0.46,0.41,0.69,0.77,0.69
				c0.36,0,0.62-0.24,0.77-0.71c0.15-0.47,0.23-1.3,0.23-2.49c0-1.19-0.08-2.03-0.23-2.51c-0.15-0.48-0.41-0.72-0.77-0.72
				s-0.61,0.23-0.77,0.69C409.74,310.95,409.67,311.8,409.67,313.03z"/>
		</g>
	</g>
	<g>
		<path class="st15" d="M324.1,453.23c0,0-4.69-34.93-21.43-66.3c-16.74-31.38-52.22-29.01-52.22-29.01s-35.49-2.37-52.22,29.01
			c-16.74,31.38-21.42,66.3-21.42,66.3h20.09c0,0-4.02,33.74-4.02,46.77c11.38,0,57.58,0,57.58,0s46.2,0,57.58,0
			c0-13.02-4.02-46.77-4.02-46.77H324.1z"/>
		<path class="st16" d="M259.7,385.89h-19.62c-2.62,0-4.75-2.13-4.75-4.75v-68.43h29.11v68.43
			C264.44,383.76,262.32,385.89,259.7,385.89z"/>
		<path class="st17" d="M235.33,351.56c3.02,0.8,7.64,1.51,14.56,1.51c6.9,0,11.53-0.71,14.56-1.51v-17.8
			c-9.59-0.04-28.87,0.08-28.87,0.08l-0.25,0.7V351.56z"/>
		<ellipse class="st16" cx="250.45" cy="261.98" rx="68.48" ry="84.35"/>
		<ellipse class="st18" cx="220.35" cy="255.37" rx="7.1" ry="12.75"/>
		<ellipse class="st18" cx="280.55" cy="255.37" rx="7.1" ry="12.75"/>
		<path class="st19" d="M252.42,248.77c-0.42-1.47-9.06,20.18-8.65,25.95c0.43,6.01,12.21,5.17,12.26-1.16
			C256.08,265.44,254.62,256.59,252.42,248.77z"/>
		<path class="st20" d="M227.63,296.38c0,0,27.37,4.09,44.99-7.55c3.46,11.64-3.78,31.14-22.49,32.72
			C231.4,323.12,226.37,305.19,227.63,296.38z"/>
		<path class="st6" d="M227.63,296.38c-0.42,2.95-0.11,6.92,1.15,10.84c7.79,0.99,27.39,2.26,44.06-6.71
			c0.86-4.13,0.79-8.25-0.23-11.67C255,300.47,227.63,296.38,227.63,296.38z"/>
		<path class="st21" d="M269.65,309.01c-3.28-0.52-8.85-0.71-17.44,1.06c-8.9,1.83-13.94,5.05-16.64,7.47
			c3.49,2.82,8.22,4.54,14.54,4.01C259.46,320.76,265.93,315.51,269.65,309.01z"/>
		<g>
			<path class="st22" d="M290.11,239.37c-0.67,0-1.36-0.17-1.98-0.54c-6.9-4.07-15.2-4.73-15.29-4.74c-2.14-0.16-3.75-2.02-3.6-4.16
				c0.16-2.14,2-3.75,4.16-3.6c0.41,0.03,10.17,0.77,18.69,5.8c1.85,1.09,2.47,3.48,1.37,5.33
				C292.74,238.69,291.44,239.37,290.11,239.37z"/>
		</g>
		<g>
			<path class="st22" d="M210.79,239.37c-1.33,0-2.63-0.68-3.36-1.91c-1.09-1.85-0.48-4.24,1.37-5.33
				c8.51-5.03,18.28-5.77,18.69-5.8c2.14-0.16,4.01,1.46,4.16,3.61c0.15,2.14-1.46,4-3.6,4.16c-0.16,0.01-8.42,0.68-15.28,4.74
				C212.14,239.2,211.46,239.37,210.79,239.37z"/>
		</g>
		<path class="st22" d="M325.28,236.98c-0.9-28.33-10.38-50.52-21.3-44.79c-8.2,4.3-8.08,15.41-7.33,24.51l0.01,0.16
			c0.96,11.64,2.65,23.18,5.16,34.48c1.74,7.82,3.77,15.57,6.26,23.1c0.21,0.65,2.22,5.5,3.66,9.1c0.75,1.87,2.85,2.12,3.91,0.49
			C321.8,274.59,326.08,262.12,325.28,236.98z"/>
		<path class="st22" d="M175.62,236.98c0.9-28.33,10.38-50.52,21.3-44.79c8.2,4.3,8.08,15.41,7.33,24.51l-0.01,0.16
			c-0.96,11.64-2.65,23.18-5.16,34.48c-1.74,7.82-3.77,15.57-6.26,23.1c-0.21,0.65-2.22,5.5-3.66,9.1
			c-0.75,1.87-2.85,2.12-3.91,0.49C179.1,274.59,174.82,262.12,175.62,236.98z"/>
		<path class="st16" d="M324.1,453.23c0,0,5.19,24.8,5.64,46.77c-8.61,0-25.37,0-25.37,0l-0.36-46.77H324.1z"/>
		<path class="st16" d="M176.8,453.23c0,0-5.19,24.8-5.64,46.77c8.61,0,25.37,0,25.37,0l0.36-46.77H176.8z"/>
		<path class="st23" d="M250.45,380.16c0,0-9.09,0.11-13.91,11.68c0,0,4.14,6.69,13.91,6.69s13.91-6.69,13.91-6.69
			C259.54,380.27,250.45,380.16,250.45,380.16z"/>
		<path class="st23" d="M255.74,389.35h-5.29h-5.29c0,0-13.72,72.82-11.39,79.62c2.33,6.8,16.68,18.68,16.68,18.68
			s14.35-11.88,16.68-18.68C269.46,462.17,255.74,389.35,255.74,389.35z"/>
		<path class="st22" d="M186.63,157.43c-7.94,2.98-13.57,6.83-12.41,11.8c2.6,11.06,12.86,11.06,12.86,11.06s-8.26,2.01-6.84,7.37
			c1.42,5.36,9.28,12.13,24.24,12.77c0,0,18.52,0.3,32.08-3.72c13.56-4.02,41.01-5.7,52.63,2.35c11.63,8.04,22.76-2.76,22.12-15.23
			c-1.32-25.74-24.13-40.82-47.04-41.51c-13.39-0.4-26.6,2.94-39.61,6.25C219.36,149.93,199.82,152.48,186.63,157.43z"/>
		<g>
			<path class="st6" d="M166.93,253.3c-2.33,0-4.3-1.83-4.49-4.23c-0.13-1.71-2.97-42.12,22.35-70.11
				c15.27-16.88,37.36-25.44,65.65-25.44c28.3,0,50.39,8.56,65.66,25.44c25.33,27.99,22.49,68.41,22.35,70.11
				c-0.2,2.53-2.4,4.44-4.84,4.22c-2.48-0.2-4.33-2.41-4.14-4.94c0.03-0.38,2.62-38.22-20.03-63.2
				c-13.49-14.88-33.34-22.43-58.99-22.43c-25.68,0-45.54,7.56-59.03,22.48c-22.68,25.07-20.02,62.77-19.99,63.14
				c0.2,2.53-1.65,4.75-4.13,4.95C167.17,253.29,167.05,253.3,166.93,253.3z"/>
		</g>
		<g>
			<path class="st24" d="M222.44,335.99c-0.01,0-0.03,0-0.05,0c-0.84-0.01-20.57-0.41-29.7-8.75c-8.66-7.91-20.2-37.66-21.48-41.03
				c-0.6-1.58,0.19-3.35,1.77-3.96c1.58-0.6,3.36,0.19,3.96,1.77c3.35,8.77,13.46,32.82,19.88,38.69
				c6.15,5.61,20.61,7.06,25.66,7.15c1.7,0.03,3.05,1.42,3.02,3.12C225.48,334.65,224.11,335.99,222.44,335.99z"/>
		</g>
		
			<ellipse transform="matrix(0.2202 -0.9755 0.9755 0.2202 -151.4696 478.2217)" class="st24" cx="223.35" cy="333.84" rx="10.14" ry="10.14"/>
		<path class="st25" d="M250.45,380.16l-14.57-22c-2.47-3.72-7.73-4.43-10.97-1.35c-3.01,2.87-6.32,7.23-8.35,13.58l19.99,24.52
			C236.54,394.91,239.42,381.89,250.45,380.16z"/>
		<path class="st25" d="M250.45,380.16l14.57-22c2.47-3.72,7.73-4.43,10.97-1.35c3.01,2.87,6.32,7.23,8.35,13.58l-19.99,24.52
			C264.35,394.91,261.48,381.89,250.45,380.16z"/>
		<path class="st26" d="M323.77,243.2c0,0,20.32-10.38,24.19,13.63c2.73,16.97-3.56,46.86-22.83,42.98
			c-13.23-2.66-14.4-14.31-12.28-26.2C314.58,263.93,317.28,250.43,323.77,243.2z"/>
		<path class="st24" d="M323.77,243.2c-6.5,7.23-9.19,20.73-10.92,30.41c-1.77,9.91-1.23,19.63,6.65,24.14
			c0.45-3.7,1.25-9.98,2.68-20.67c2.47-18.53,7.92-31.66,9.95-36.08C327.54,241.28,323.77,243.2,323.77,243.2z"/>
		<path class="st26" d="M177.13,243.2c0,0-20.32-10.38-24.19,13.63c-2.73,16.97,3.56,46.86,22.83,42.98
			c13.23-2.66,14.4-14.31,12.28-26.2C186.31,263.93,183.62,250.43,177.13,243.2z"/>
		<path class="st24" d="M177.13,243.2c6.5,7.23,9.19,20.73,10.92,30.41c1.77,9.91,1.23,19.63-6.65,24.14
			c-0.45-3.7-1.25-9.98-2.68-20.67c-2.47-18.53-7.92-31.66-9.95-36.08C173.36,241.28,177.13,243.2,177.13,243.2z"/>
	</g>
</g>
<g id="DESIGNED_BY_FREEPIK" class="st0">
	<g class="st27">
		<g id="XMLID_319_">
			<g id="XMLID_338_">
				<path id="XMLID_346_" class="st28" d="M260.1,470.39c-0.43,0.44-0.8,0.93-1.11,1.45l-0.47-0.24c-0.07-0.3-0.35-0.5-0.66-0.47
					c-0.33,0.04-0.57,0.34-0.53,0.67c0.04,0.33,0.34,0.57,0.67,0.53c0.07-0.01,0.13-0.03,0.18-0.05l0.45,0.23
					c-0.25,0.55-0.43,1.14-0.54,1.74l0.75,0.13c0.23-1.31,0.85-2.51,1.79-3.47L260.1,470.39z"/>
				<path id="XMLID_345_" class="st28" d="M265.59,468.09c-0.17,0-0.34,0.01-0.51,0.02l-0.07-0.63c0.19-0.15,0.3-0.39,0.27-0.64
					c-0.05-0.39-0.4-0.67-0.8-0.63c-0.39,0.05-0.67,0.4-0.63,0.8c0.03,0.25,0.19,0.46,0.4,0.56l0.07,0.62
					c-0.71,0.12-1.4,0.33-2.06,0.65l0.33,0.68c0.93-0.45,1.94-0.67,3-0.67c0.5,0,0.99,0.05,1.48,0.16l0.16-0.74
					C266.69,468.15,266.14,468.09,265.59,468.09z"/>
				<path id="XMLID_344_" class="st28" d="M272.19,470.64c0.33-0.04,0.57-0.34,0.53-0.67c-0.04-0.33-0.34-0.57-0.67-0.53
					c-0.31,0.04-0.54,0.3-0.53,0.61l-0.42,0.36c-0.42-0.43-0.89-0.81-1.41-1.14l-0.4,0.64c1.13,0.71,2.02,1.73,2.56,2.93l0.69-0.31
					c-0.25-0.55-0.57-1.07-0.94-1.54l0.4-0.35C272.06,470.64,272.13,470.65,272.19,470.64z"/>
				<path id="XMLID_343_" class="st28" d="M265.04,478.3c-0.39,0.02-0.77,0.03-1.16,0.03c-0.88,0-1.73-0.06-2.48-0.18
					c-0.39-0.06-0.85-0.15-1.27-0.29c1.05,1.86,3.07,3.13,5.39,3.13c2.86,0,5.26-1.92,5.95-4.5c-0.68,0.45-1.51,0.83-2.46,1.12
					C267.84,477.98,266.46,478.22,265.04,478.3z"/>
				<path id="XMLID_339_" class="st28" d="M265.59,469.61c-3.35,0-6.08,2.67-6.08,5.94c0,0.43,0.05,0.85,0.14,1.26
					c0.67,0.48,2.71,0.89,5.35,0.73c2.88-0.17,5.3-0.96,6.67-2.16c-0.01-0.2-0.02-0.39-0.05-0.58
					C271.24,471.84,268.65,469.61,265.59,469.61z M263.43,476.12c-1.02,0-1.85-0.83-1.85-1.85c0-1.02,0.83-1.85,1.85-1.85
					c1.02,0,1.85,0.83,1.85,1.85C265.28,475.29,264.45,476.12,263.43,476.12z M268.17,475.21c-0.75,0-1.36-0.61-1.36-1.36
					c0-0.75,0.61-1.36,1.36-1.36c0.75,0,1.36,0.61,1.36,1.36C269.53,474.6,268.92,475.21,268.17,475.21z"/>
			</g>
			<path id="XMLID_336_" class="st28" d="M281.6,471.48c-0.29-0.12-0.81-0.31-1.38-0.24c-0.55,0.07-0.84,0.34-0.84,1.01v0.87h2.23
				v1.72h-2.23v5.45h-1.93v-5.45h-1.34v-1.72h1.34v-0.89c0-1.68,0.9-2.78,2.57-2.78c0.64,0,1.16,0.12,1.59,0.31L281.6,471.48z"/>
			<path id="XMLID_334_" class="st28" d="M286.3,474.81c-0.18-0.03-0.36-0.05-0.53-0.05c-0.9,0-1.51,0.55-1.51,1.61v3.91h-1.93
				v-7.17h1.87v0.78c0.45-0.67,1.14-0.98,2.02-0.98c0.41,0,0.85,0.13,1.09,0.34L286.3,474.81z"/>
			<path id="XMLID_331_" class="st28" d="M293.97,476.69c0,0.22-0.01,0.49-0.04,0.65h-5.08c0.21,1.04,0.93,1.49,1.84,1.49
				c0.62,0,1.3-0.25,1.81-0.69l1.13,1.24c-0.81,0.75-1.85,1.09-3.06,1.09c-2.2,0-3.72-1.5-3.72-3.75c0-2.26,1.48-3.8,3.63-3.8
				C292.54,472.92,293.96,474.45,293.97,476.69z M288.85,476.02h3.18c-0.18-0.92-0.73-1.44-1.56-1.44
				C289.55,474.58,289.02,475.13,288.85,476.02z"/>
			<path id="XMLID_328_" class="st28" d="M301.62,476.69c0,0.22-0.01,0.49-0.04,0.65h-5.08c0.21,1.04,0.93,1.49,1.84,1.49
				c0.62,0,1.3-0.25,1.81-0.69l1.13,1.24c-0.81,0.75-1.85,1.09-3.06,1.09c-2.2,0-3.72-1.5-3.72-3.75c0-2.26,1.48-3.8,3.63-3.8
				C300.2,472.92,301.61,474.45,301.62,476.69z M296.5,476.02h3.18c-0.18-0.92-0.73-1.44-1.56-1.44
				C297.21,474.58,296.67,475.13,296.5,476.02z"/>
			<path id="XMLID_325_" class="st28" d="M309.96,476.69c0,2.15-1.49,3.77-3.47,3.77c-0.96,0-1.64-0.38-2.11-0.93v3.71h-1.92v-10.13
				h1.89v0.79c0.47-0.58,1.15-0.98,2.14-0.98C308.47,472.92,309.96,474.54,309.96,476.69z M304.29,476.69
				c0,1.13,0.75,1.98,1.84,1.98c1.14,0,1.85-0.88,1.85-1.98c0-1.1-0.71-1.98-1.85-1.98C305.03,474.72,304.29,475.56,304.29,476.69z"
				/>
			<path id="XMLID_322_" class="st28" d="M313.07,470.76c0,0.7-0.54,1.23-1.24,1.23c-0.7,0-1.23-0.53-1.23-1.23
				c0-0.7,0.53-1.24,1.23-1.24C312.53,469.52,313.07,470.07,313.07,470.76z M312.81,480.28h-1.93v-7.17h1.93V480.28z"/>
			<path id="XMLID_320_" class="st28" d="M316.03,475.66l2.7-2.55h2.37l-3.48,3.38l3.5,3.8h-2.38l-2.72-2.9v2.9h-1.93v-10.66h1.93
				V475.66z"/>
		</g>
		<g>
			<path class="st28" d="M184.41,480.22v-1.05c-0.53,0.72-1.39,1.23-2.39,1.23c-1.85,0-3.15-1.41-3.15-3.71
				c0-2.26,1.29-3.72,3.15-3.72c0.95,0,1.82,0.47,2.39,1.25v-3.76h1.1v9.77H184.41z M184.41,478.3v-3.21
				c-0.4-0.62-1.24-1.14-2.12-1.14c-1.42,0-2.27,1.17-2.27,2.74c0,1.57,0.85,2.72,2.27,2.72
				C183.17,479.41,184.02,478.91,184.41,478.3z"/>
			<path class="st28" d="M186.93,476.67c0-2.05,1.46-3.71,3.49-3.71c2.14,0,3.4,1.67,3.4,3.79v0.28h-5.73
				c0.09,1.33,1.03,2.45,2.55,2.45c0.81,0,1.63-0.32,2.18-0.89l0.53,0.72c-0.7,0.7-1.65,1.08-2.81,1.08
				C188.44,480.39,186.93,478.88,186.93,476.67z M190.4,473.88c-1.51,0-2.26,1.27-2.31,2.36h4.64
				C192.72,475.18,192.01,473.88,190.4,473.88z"/>
			<path class="st28" d="M194.61,479.28l0.57-0.79c0.47,0.54,1.36,1.01,2.33,1.01c1.08,0,1.67-0.51,1.67-1.22
				c0-1.71-4.38-0.66-4.38-3.28c0-1.1,0.95-2.04,2.64-2.04c1.2,0,2.05,0.45,2.62,1.03l-0.51,0.76c-0.42-0.51-1.2-0.89-2.11-0.89
				c-0.97,0-1.57,0.48-1.57,1.11c0,1.55,4.38,0.53,4.38,3.28c0,1.19-0.95,2.14-2.78,2.14C196.31,480.39,195.32,480.04,194.61,479.28
				z"/>
			<path class="st28" d="M201.48,471.4c0-0.41,0.34-0.75,0.73-0.75c0.41,0,0.75,0.34,0.75,0.75c0,0.41-0.34,0.73-0.75,0.73
				C201.81,472.13,201.48,471.81,201.48,471.4z M201.67,480.22v-7.07h1.1v7.07H201.67z"/>
			<path class="st28" d="M204.58,482.03l0.56-0.82c0.59,0.7,1.29,0.97,2.3,0.97c1.17,0,2.27-0.57,2.27-2.12v-1.01
				c-0.51,0.72-1.38,1.26-2.37,1.26c-1.85,0-3.15-1.38-3.15-3.66c0-2.27,1.29-3.68,3.15-3.68c0.95,0,1.8,0.47,2.37,1.25v-1.07h1.1
				v6.87c0,2.34-1.64,3.08-3.37,3.08C206.24,483.09,205.42,482.85,204.58,482.03z M209.71,478.18v-3.09
				c-0.38-0.62-1.23-1.14-2.11-1.14c-1.42,0-2.27,1.13-2.27,2.7c0,1.55,0.85,2.7,2.27,2.7C208.48,479.34,209.33,478.8,209.71,478.18
				z"/>
			<path class="st28" d="M217.41,480.22v-4.63c0-1.24-0.63-1.64-1.58-1.64c-0.86,0-1.68,0.53-2.09,1.1v5.17h-1.1v-7.07h1.1v1.03
				c0.5-0.59,1.46-1.2,2.52-1.2c1.48,0,2.26,0.75,2.26,2.29v4.97H217.41z"/>
			<path class="st28" d="M219.93,476.67c0-2.05,1.46-3.71,3.49-3.71c2.14,0,3.4,1.67,3.4,3.79v0.28h-5.73
				c0.09,1.33,1.03,2.45,2.55,2.45c0.81,0,1.63-0.32,2.18-0.89l0.53,0.72c-0.7,0.7-1.66,1.08-2.81,1.08
				C221.44,480.39,219.93,478.88,219.93,476.67z M223.4,473.88c-1.51,0-2.26,1.27-2.31,2.36h4.64
				C225.72,475.18,225.02,473.88,223.4,473.88z"/>
			<path class="st28" d="M233.35,480.22v-1.05c-0.53,0.72-1.39,1.23-2.39,1.23c-1.85,0-3.15-1.41-3.15-3.71
				c0-2.26,1.29-3.72,3.15-3.72c0.95,0,1.82,0.47,2.39,1.25v-3.76h1.1v9.77H233.35z M233.35,478.3v-3.21
				c-0.4-0.62-1.25-1.14-2.12-1.14c-1.42,0-2.27,1.17-2.27,2.74c0,1.57,0.85,2.72,2.27,2.72
				C232.1,479.41,232.95,478.91,233.35,478.3z"/>
			<path class="st28" d="M239.69,480.22v-9.77h1.1v3.76c0.57-0.78,1.42-1.25,2.39-1.25c1.85,0,3.15,1.46,3.15,3.72
				c0,2.3-1.3,3.71-3.15,3.71c-1,0-1.86-0.51-2.39-1.23v1.05H239.69z M242.9,479.41c1.44,0,2.29-1.16,2.29-2.72
				c0-1.57-0.85-2.74-2.29-2.74c-0.86,0-1.73,0.53-2.11,1.14v3.21C241.17,478.91,242.04,479.41,242.9,479.41z"/>
			<path class="st28" d="M247.53,481.99c0.16,0.07,0.43,0.12,0.6,0.12c0.48,0,0.81-0.16,1.05-0.75l0.47-1.07l-2.96-7.15h1.19
				l2.36,5.8l2.34-5.8h1.2l-3.54,8.51c-0.42,1.03-1.14,1.42-2.08,1.44c-0.23,0-0.6-0.04-0.81-0.1L247.53,481.99z"/>
		</g>
	</g>
</g>
</svg>
