<?xml version="1.0" encoding="utf-8"?>
<!-- Generator: Adobe Illustrator 23.0.3, SVG Export Plug-In . SVG Version: 6.00 Build 0)  -->
<svg version="1.1" xmlns="http://www.w3.org/2000/svg" xmlns:xlink="http://www.w3.org/1999/xlink" x="0px" y="0px"
	 viewBox="0 0 500 500" style="enable-background:new 0 0 500 500;" xml:space="preserve">
<style type="text/css">
	.st0{fill:#FFFFFF;}
	.st1{fill:#E1E1E1;}
	.st2{fill:#5E5E5E;}
	.st3{fill:#D0D7E9;}
	.st4{fill:#1A2B36;}
	.st5{fill:#B5CAD9;}
	.st6{fill:#4D6F80;}
	.st7{fill:#64A1A3;}
	.st8{fill:#7AC7C7;}
	.st9{fill:#E6B48F;}
	.st10{fill:#DFE3EB;}
	.st11{fill:#394A5C;}
	.st12{fill:#496076;}
	.st13{fill:#F0F5FF;}
	.st14{fill:#DE9E85;}
	.st15{fill:#713E3D;}
	.st16{clip-path:url(#SVGID_2_);}
	.st17{fill:#745345;}
	.st18{fill:#390A0A;}
	.st19{clip-path:url(#SVGID_4_);}
	.st20{fill:#C78E78;}
	.st21{fill:#558570;}
	.st22{fill:#76B375;}
	.st23{fill:#98733F;}
	.st24{fill:#CC9252;}
	.st25{fill:#B4F7E0;}
	.st26{fill:#444444;}
	.st27{fill:#C4A577;}
	.st28{fill:#E4C188;}
	.st29{fill:#A0D9D5;}
	.st30{fill:#E6EFFD;}
	.st31{fill:#C4D5DC;}
	.st32{fill:#DEEBF0;}
	.st33{fill:#B6D1DC;}
	.st34{fill:#CFE7F0;}
	.st35{fill:#B7D1E6;}
	.st36{fill:#6DAECD;}
	.st37{fill:#F1CC4E;}
	.st38{fill:#CDCC4A;}
	.st39{fill:#AAF5DA;}
	.st40{fill:#D1D4FC;}
</style>
<g id="BACKGROUND">
	<rect class="st0" width="500" height="500"/>
</g>
<g id="OBJECTS">
	<g>
		<g>
			<path class="st1" d="M433.44,443.39c0,3.66-70.47,6.62-157.4,6.62c-86.93,0-157.4-2.96-157.4-6.62c0-3.66,70.47-6.62,157.4-6.62
				C362.97,436.77,433.44,439.73,433.44,443.39z"/>
			<g>
				<g>
					<g>
						<g>
							<path class="st2" d="M301.42,423.15c1.13-0.16,30.26-20.27,23.46-19.62c-0.74,0.08-1.55,0.17-2.4,0.29
								c-6.91,1-16.54,3.45-16.54,3.45l-6.04-4.28l-5.49-3.91l-0.93-0.68l-6.31,6.32c0,0,2.48,3.5,5.32,7.38
								c1.05,1.43,2.18,2.96,3.24,4.37c1.12,1.5,2.22,2.91,3.13,4.04C300.16,422.12,301.14,423.19,301.42,423.15z"/>
						</g>
						<path class="st3" d="M295.76,416.51c4.5-2.51,10.18-9.24,10.18-9.24l-6.04-4.28l-5.42-3.84c-2.98,2.34-6.5,5.12-7.17,5.71
							c0,0,2.41,3.43,5.24,7.31C293.59,413.61,294.69,415.1,295.76,416.51z"/>
					</g>
					<path class="st4" d="M303.56,408.55c0.52,0.06,1.77-0.12,2.17-0.59c-0.02,0.09,0.01,0.2,0.1,0.24
						c1.08,0.53,2.12-0.91,3.05-1.64c-0.09,0.83-0.32,1.64-0.27,2.49c0.02,0.31,0.37,0.59,0.66,0.39c1.28-0.9,1.95-2.72,3.53-2.85
						c-0.04,0.25,0.11,0.54,0.4,0.5c1.1-0.13,2.06-0.65,2.86-1.41c0.19-0.18,0-0.55-0.26-0.46c-0.62,0.22-1.17,0.59-1.78,0.82
						c-0.05-0.1-0.14-0.2-0.27-0.23c-2.24-0.52-2.92,1.02-4.21,2.26c0.1-0.76,0.29-1.51,0.24-2.29c-0.01-0.26-0.27-0.53-0.55-0.42
						c-1.05,0.39-1.78,1.25-2.64,1.94c1.59-2.65-0.82-7.45-3.59-8.25c-1.75-0.5-2.05,0.71-1.54,2.16c0.6,1.75,1.8,3.53,2.99,5.12
						c-1-0.83-1.88-1.85-3.08-2.39c-0.85-0.38-1.74-0.69-2.67-0.78c-1.08-0.11-2.55,0.35-1.6,1.68
						C298.6,406.97,301,408.27,303.56,408.55z M305.93,407.27c-1.22-1.58-2.31-3.31-3.3-5.03c-0.32-0.57-0.66-1.18-0.77-1.82
						c-0.26-1.5,1.39-0.68,2.01-0.1C305.61,401.91,307.41,405.01,305.93,407.27z M298.46,405.42c-0.37-0.39-1.64-1.66-0.3-1.62
						c1.48,0.05,2.96,0.58,4.09,1.54c0.94,0.8,1.81,1.66,2.88,2.25c-0.59,0.84-4.08-0.38-4.36-0.53
						C299.92,406.62,299.12,406.11,298.46,405.42z"/>
				</g>
				<g>
					<g>
						<rect x="187.36" y="372.06" class="st5" width="7" height="14"/>
					</g>
					<path class="st6" d="M229.36,363.04c0,4.46-4.72,12.01-9.6,12.01h-56.18c-4.88,0-6.21-7.55-6.21-12.01v-0.33
						c0-4.46,1.33-7.65,6.21-7.65h56.18c4.89,0,9.6,3.19,9.6,7.65V363.04z"/>
					<g>
						<g>
							<path class="st5" d="M190.17,409.76c1.81-1.07,4.17-0.67,6.17-0.51c2.54,0.19,5.07,0.4,7.61,0.34c4.71-0.1,9.64,0.08,14,2.06
								c3.57,1.63,8.4,4.86,9.75,8.76c1.04,3.02,0.96,7.82-1.36,10.27c-0.41,0.43-1.02-0.02-0.92-0.54
								c0.21-1.17-0.36-2.84-0.46-4.05c-0.18-2.17,0.31-3.85-1.18-5.75c-2.62-3.32-6.47-5.62-10.54-6.63
								c-3.77-0.93-7.7-0.67-11.54-0.91c-1.93-0.12-3.83-0.48-5.72-0.83c-1.91-0.35-4.14-0.44-5.8-1.48
								C189.91,410.33,189.89,409.93,190.17,409.76z"/>
							<path class="st5" d="M186.96,409.76c-1.81-1.07-4.17-0.67-6.17-0.51c-2.54,0.19-5.07,0.4-7.61,0.34
								c-4.71-0.1-9.63,0.08-14,2.06c-3.57,1.63-8.4,4.86-9.75,8.76c-1.04,3.02-0.96,7.82,1.36,10.27c0.41,0.43,1.02-0.02,0.92-0.54
								c-0.22-1.17,0.36-2.84,0.46-4.05c0.18-2.17-0.31-3.85,1.19-5.75c2.62-3.32,6.47-5.62,10.53-6.63
								c3.77-0.93,7.71-0.67,11.55-0.91c1.92-0.12,3.82-0.48,5.72-0.83c1.9-0.35,4.14-0.44,5.8-1.48
								C187.23,410.33,187.24,409.93,186.96,409.76z"/>
							<path class="st5" d="M168.74,422.47c0.26-2.58,1.83-5.18,3.88-6.74c2.28-1.73,4.94-2.45,7.74-2.83
								c1.37-0.19,2.72-0.37,4.07-0.71c1.37-0.35,2.63-1.03,4.05-1.23c0.74-0.11,1.4,0.56,1,1.3c-2.27,4.13-8.63,3.35-12.51,4.6
								c-2.75,0.89-4.84,3.18-5.52,5.98c-0.34,1.41-0.05,2.95-0.03,4.37c0.02,1.18,0.34,2.27-0.2,3.34c-0.19,0.36-0.65,0.27-0.86,0
								C168.73,428.4,168.49,425.05,168.74,422.47z"/>
							<path class="st5" d="M206.31,422.47c-0.25-2.58-1.82-5.18-3.88-6.74c-2.28-1.73-4.94-2.45-7.74-2.83
								c-1.37-0.19-2.72-0.37-4.07-0.71c-1.38-0.35-2.63-1.03-4.05-1.23c-0.74-0.11-1.4,0.56-1,1.3c2.27,4.13,8.63,3.35,12.51,4.6
								c2.75,0.89,4.84,3.18,5.52,5.98c0.33,1.41,0.05,2.95,0.03,4.37c-0.02,1.18-0.35,2.27,0.2,3.34c0.19,0.36,0.65,0.27,0.85,0
								C206.32,428.4,206.56,425.05,206.31,422.47z"/>
						</g>
						<g>
							<g>
								<g>
									<g>
										<path class="st2" d="M178.16,433.97c0,0.28-0.02,0.56-0.06,0.84c-0.45,3.3-3.54,5.85-7.27,5.85
											c-3.74,0-6.82-2.55-7.27-5.85c-0.03-0.28-0.06-0.55-0.06-0.84c0-3.7,3.28-6.7,7.33-6.7
											C174.88,427.27,178.16,430.27,178.16,433.97z"/>
									</g>
								</g>
								<g>
									<g>
										<path class="st2" d="M157.56,433.97c0,0.28-0.02,0.56-0.06,0.84c-0.45,3.3-3.54,5.85-7.27,5.85
											c-3.73,0-6.82-2.55-7.27-5.85c-0.03-0.28-0.05-0.55-0.05-0.84c0-3.7,3.28-6.7,7.33-6.7
											C154.28,427.27,157.56,430.27,157.56,433.97z"/>
									</g>
								</g>
							</g>
							<g>
								<g>
									<g>
										<path class="st2" d="M213.55,433.97c0,0.28-0.02,0.56-0.06,0.84c-0.45,3.3-3.53,5.85-7.27,5.85
											c-3.74,0-6.82-2.55-7.27-5.85c-0.04-0.28-0.05-0.55-0.05-0.84c0-3.7,3.28-6.7,7.32-6.7
											C210.27,427.27,213.55,430.27,213.55,433.97z"/>
									</g>
								</g>
								<g>
									<g>
										<path class="st2" d="M217.88,433.97c0,0.28,0.02,0.56,0.06,0.84c0.45,3.3,3.53,5.85,7.27,5.85c3.74,0,6.82-2.55,7.27-5.85
											c0.03-0.28,0.05-0.55,0.05-0.84c0-3.7-3.28-6.7-7.33-6.7C221.16,427.27,217.88,430.27,217.88,433.97z"/>
									</g>
								</g>
							</g>
							<g>
								<rect x="183.36" y="386.06" class="st6" width="14" height="32"/>
							</g>
						</g>
					</g>
					<g>
						<path class="st7" d="M250.44,347.42c-2.59-2.5-6.31-3.38-11.49-4c-5.88-0.7-3.13-1.13-15.24-1.27
							c-7.55-0.09-25.25-0.98-27.63-9.87c-0.8-2.96-0.46-6.6-0.66-9.65c-0.17-2.78-0.32-5.57-0.46-8.35
							c-0.25-5.12-0.49-10.24-0.81-15.36c-0.58-9.38-1.09-18.76-1.67-28.14c-0.12-1.85-0.33-3.72-0.33-5.57
							c0-5.34-4.48-12.3-12.15-13.24c-14.48-1.77-45.37-4.85-48.27,0c0,0,6.98,80.17,8.77,86.52c1.8,6.35,25.97,11.88,28.77,13
							c1.84,0.73,3.51,0.83,11.73,0.8c4.86,5.49-10.39,9.73,0,10.59c2.4,0.21,60.28-1.02,61.83-0.93c5.32,0.32,9.9-3.27,10.24-8.01
							C253.25,351.58,252.29,349.19,250.44,347.42z"/>
						<g>
							<path class="st8" d="M154.98,362.26c-9.85-0.82-17.46-4.22-22.67-10.18c-5.17-5.92-6.02-12.25-6.14-13.46
								c-0.03-0.29-0.04-0.58-0.04-0.88l-0.96-78.95c-0.06-4.85,3.14-9.05,7.16-9.37c4.02-0.33,7.32,3.35,7.38,8.2
								c0.09,7.27,0.17,14.54,0.25,21.82c0.15,13.01,0.16,26.06,0.48,39.06c0.07,2.76,0.09,5.51,0.05,8.29
								c-0.06,4.46-0.52,10.26,2.89,12.96c2.78,2.21,5.5,3.71,8.88,4.33c2.91,0.53,5.97,0.8,8.94,0.76
								c9.12-0.13,15.97,0.11,20.39,0.7c3.89,0.51,6.67,1.34,8.55,3.83c1.34,1.77,2.01,4.19,1.81,6.62
								c-0.38,4.86-2.99,7.22-6.98,7.01c-1.17-0.06-10.15,0.91-24.37-0.55C158.68,362.25,156.78,362.41,154.98,362.26z"/>
						</g>
					</g>
					<g>
						<g>
							<g>
								<path class="st6" d="M176.49,387.3c-0.26,0-0.53-0.08-0.73-0.25c-0.48-0.37-0.53-1.02-0.13-1.45l11.1-11.91
									c0.4-0.43,1.11-0.49,1.59-0.11c0.47,0.37,0.53,1.02,0.12,1.45l-11.1,11.91C177.12,387.18,176.8,387.3,176.49,387.3z"/>
							</g>
						</g>
						<path class="st6" d="M179.69,387.71c0,2.8-2.28,5.08-5.08,5.08c-2.81,0-5.08-2.28-5.08-5.08c0-2.8,2.27-5.08,5.08-5.08
							C177.41,382.63,179.69,384.91,179.69,387.71z"/>
					</g>
				</g>
				<g>
					<path class="st9" d="M276.3,297.47c-3.85-10.07-19.65-9.57-25.51-2.27l-7.25,4.83c5.42,4.36,18.04,1.99,24.79,3
						C273.04,303.74,279.23,305.16,276.3,297.47z"/>
					<path class="st10" d="M193.86,250.37c0,0-3.41,60.09,62.36,50.48l2.7-12.38c0,0-29.98-8.19-35.64-17.94
						c0,0-4.43-16.24-9.33-26.67C207.18,229.47,198.83,222.38,193.86,250.37z"/>
				</g>
				<path class="st11" d="M160.12,317.14c0,0-5.18,28.17,11.47,29.49c16.65,1.31,60.53,9.77,64.36,15.33
					c3.83,5.56,55.23,54.42,55.23,54.42l12.67-13.98c0,0-42.09-54.01-58.03-65.62c-21.75-15.84-54.27-21.63-54.27-21.63
					L160.12,317.14z"/>
				<g>
					<g>
						<g>
							<g>
								<path class="st2" d="M275.07,436.18c1.14,0,32.79-15.86,25.97-16.15c-0.75-0.03-1.56-0.05-2.42-0.05
									c-6.98,0.02-16.86,1.11-16.86,1.11l-5.38-5.08l-4.89-4.64l-0.83-0.81l-7.13,5.38c0,0,1.97,3.81,4.23,8.05
									c0.83,1.57,1.75,3.24,2.6,4.78c0.9,1.64,1.79,3.19,2.54,4.43C273.96,434.99,274.79,436.18,275.07,436.18z"/>
							</g>
							<path class="st3" d="M270.39,428.82c4.81-1.86,11.37-7.72,11.37-7.72l-5.38-5.08l-4.83-4.56c-3.28,1.91-7.15,4.17-7.89,4.65
								c0,0,1.91,3.73,4.17,7.97C268.65,425.64,269.53,427.27,270.39,428.82z"/>
						</g>
						<path class="st4" d="M279.23,422.03c0.51,0.13,1.78,0.13,2.23-0.28c-0.04,0.09-0.02,0.19,0.06,0.25c1,0.68,2.22-0.6,3.25-1.2
							c-0.2,0.81-0.55,1.58-0.62,2.43c-0.02,0.3,0.28,0.63,0.6,0.47c1.4-0.71,2.31-2.41,3.9-2.33c-0.08,0.24,0.03,0.55,0.33,0.55
							c1.11,0.02,2.13-0.36,3.03-1c0.21-0.15,0.07-0.54-0.2-0.49c-0.64,0.13-1.25,0.42-1.88,0.57c-0.04-0.12-0.11-0.21-0.24-0.26
							c-2.15-0.83-3.04,0.6-4.49,1.65c0.2-0.74,0.5-1.46,0.56-2.24c0.02-0.26-0.19-0.56-0.49-0.5c-1.09,0.24-1.94,0.99-2.89,1.56
							c1.94-2.4,0.23-7.49-2.4-8.67c-1.66-0.75-2.12,0.41-1.83,1.92c0.36,1.82,1.29,3.74,2.25,5.49c-0.88-0.97-1.6-2.09-2.71-2.8
							c-0.79-0.5-1.63-0.93-2.54-1.14c-1.05-0.25-2.57-0.01-1.82,1.44C274.54,419.77,276.73,421.39,279.23,422.03z M281.75,421.09
							c-0.99-1.73-1.83-3.6-2.57-5.44c-0.24-0.61-0.49-1.26-0.51-1.92c-0.05-1.52,1.47-0.48,2.01,0.18
							C282.19,415.74,283.53,419.06,281.75,421.09z M274.61,418.21c-0.32-0.44-1.39-1.87-0.08-1.64c1.46,0.26,2.85,0.99,3.83,2.1
							c0.82,0.93,1.56,1.89,2.54,2.63c-0.7,0.75-3.99-0.94-4.25-1.13C275.9,419.6,275.17,418.99,274.61,418.21z"/>
					</g>
					<path class="st12" d="M149.94,311.5c0,0-9.06,27.18,7.25,30.8c16.31,3.62,58.58,18.12,61.6,24.16
						c3.02,6.04,47.1,61.59,47.1,61.59l14.49-12.08c0,0-34.15-59.35-48.31-73.07c-19.32-18.72-50.73-28.99-50.73-28.99L149.94,311.5
						z"/>
				</g>
				<path class="st2" d="M151.75,305.47c0,0,32.61,4.83,41.67,3.02l-0.6,6.64c0,0-31.4,4.23-42.88-3.63L151.75,305.47z"/>
				<path class="st13" d="M151.75,305.47c-2.35-0.56-14.75-71.82-7.85-77.9c10.27-9.06,62.2-9.66,65.22,12.07
					c2.99,21.53-15.7,68.85-15.7,68.85S177.11,311.51,151.75,305.47z"/>
				<g>
					<path class="st9" d="M258.18,301.09c-3.85-10.07-19.66-9.57-25.51-2.27l-7.25,4.83c5.42,4.36,18.04,1.99,24.79,3
						C254.92,307.36,261.12,308.78,258.18,301.09z"/>
					<path class="st13" d="M152.21,226.55c13.28,0.36,14.03,17.92,23.69,30.61c18.08,23.73,29.92,29.58,38.65,32.01
						c10.87,3.02,22.34,4.23,22.34,4.23l-1.81,16.3c0,0-42.88,1.21-63.41-16.3c-9.5-8.1-17-18.88-22.67-29.92
						c-4.53-8.82-9.62-21.08-6.44-31.19c0.75-2.38,2.1-4.17,4.54-4.95C148.92,226.75,150.61,226.5,152.21,226.55z"/>
				</g>
				<path class="st14" d="M168.71,204.62c-0.46,1.81-3.68,20.53-3.68,20.53s17.46,13.89,22.51,9.66c0,0,1.38-7.24,0.92-13.29
					c-0.46-6.04-0.92-13.89-0.92-13.89L168.71,204.62z"/>
				<g>
					<polygon class="st0" points="181.88,308.64 183.68,318.23 191.83,317.55 192.06,308.04 					"/>
					<polygon class="st2" points="184.81,310.53 185.01,316.32 190.02,315.74 190.25,310.3 					"/>
				</g>
				<path class="st15" d="M201.12,153.14c-3.06-2.12,0.19-7.31-2.37-11.42c-6.62-10.63-16.8,4.31-23.9,1.36
					c-4.96-2.06-6.05-4.84-12.13-2.97c-4.66,1.44-8.9,5.27-9.63,10.33c-0.57,3.94,2.82,7.91,2.31,11.31
					c-0.58,3.92-5.46,3.9-7.17,7.7c-3.85,8.57,3.6,24.92,13.94,24.46l20.38-16.76c7.99-4.56,14.22-2.48,22.19-4.52
					c5.16-1.32,6.99-6.39,6.79-11.36C211.17,152.31,206,156.52,201.12,153.14z"/>
				<path class="st9" d="M196.64,161.58c-0.95-0.01-2.04,0.13-3.31,0.44c-5.72,1.38-11.34,3.31-17.03,4.84
					c-3.35,0.9-10.97,2.69-11.42,7.22c-0.29,2.92,0,5.83-0.23,8.74c-0.43,5.47-2.37,10.25-5.1,14.75c0.9,1.99,1.87,3.96,2.95,5.86
					c1.17,2.06,2.37,4.09,3.93,5.87c3,3.41,6.82,6.2,10.98,7.9c5.03,2.07,11.26,2.45,15.73-0.97c4.1-3.13,6.2-9.6,7.63-14.54
					c1.36-4.7,0.29-10.29-0.1-15.19C200.06,178.79,201.39,168.37,196.64,161.58z"/>
				<g>
					<path class="st0" d="M170.62,184.8c0,3.74,1.94,6.77,4.34,6.77c2.39,0,4.34-3.03,4.34-6.77s-1.94-6.77-4.34-6.77
						C172.56,178.04,170.62,181.07,170.62,184.8z"/>
					<g>
						<defs>
							<path id="SVGID_1_" d="M179.29,184.8c0,3.73-1.94,6.77-4.34,6.77c-2.4,0-4.34-3.03-4.34-6.77c0-3.74,1.94-6.77,4.34-6.77
								C177.35,178.04,179.29,181.07,179.29,184.8z"/>
						</defs>
						<clipPath id="SVGID_2_">
							<use xlink:href="#SVGID_1_"  style="overflow:visible;"/>
						</clipPath>
						<g class="st16">
							<path class="st17" d="M173.29,185.79c-0.44,2.75,0.66,5.21,2.46,5.5c1.8,0.29,3.62-1.7,4.06-4.45
								c0.44-2.75-0.66-5.21-2.46-5.5C175.55,181.06,173.74,183.05,173.29,185.79z"/>
							<path class="st18" d="M173.99,185.97c-0.35,2.15,0.48,4.07,1.85,4.3c1.37,0.22,2.76-1.34,3.11-3.5
								c0.35-2.15-0.48-4.07-1.85-4.29C175.73,182.26,174.34,183.82,173.99,185.97z"/>
							<path class="st0" d="M173.87,182.24c-0.07,0.46,0.62,0.95,1.55,1.1c0.93,0.15,1.75-0.1,1.82-0.55
								c0.07-0.46-0.62-0.95-1.55-1.1C174.75,181.54,173.94,181.78,173.87,182.24z"/>
						</g>
					</g>
				</g>
				<g>
					<path class="st0" d="M188.77,184.8c0,3.74,1.94,6.77,4.34,6.77c2.4,0,4.34-3.03,4.34-6.77s-1.94-6.77-4.34-6.77
						C190.71,178.04,188.77,181.07,188.77,184.8z"/>
					<g>
						<defs>
							<path id="SVGID_3_" d="M197.45,184.8c0,3.73-1.94,6.77-4.34,6.77c-2.4,0-4.34-3.03-4.34-6.77c0-3.74,1.94-6.77,4.34-6.77
								C195.5,178.04,197.45,181.07,197.45,184.8z"/>
						</defs>
						<clipPath id="SVGID_4_">
							<use xlink:href="#SVGID_3_"  style="overflow:visible;"/>
						</clipPath>
						<g class="st19">
							<path class="st17" d="M191.44,185.79c-0.44,2.75,0.65,5.21,2.46,5.5c1.8,0.29,3.62-1.7,4.06-4.45
								c0.44-2.75-0.66-5.21-2.46-5.5C193.7,181.06,191.89,183.05,191.44,185.79z"/>
							<path class="st18" d="M192.14,185.97c-0.35,2.15,0.48,4.07,1.85,4.3c1.37,0.22,2.76-1.34,3.1-3.5
								c0.35-2.15-0.48-4.07-1.85-4.29C193.88,182.26,192.49,183.82,192.14,185.97z"/>
							<path class="st0" d="M192.02,182.24c-0.07,0.46,0.62,0.95,1.55,1.1c0.93,0.15,1.75-0.1,1.82-0.55
								c0.07-0.46-0.62-0.95-1.55-1.1C192.91,181.54,192.09,181.78,192.02,182.24z"/>
						</g>
					</g>
				</g>
				<g>
					<path class="st9" d="M161.21,187.08c0,0-9.8-9.28-9.77,1.08c0.03,10.37,7.93,13.03,11.99,10.88
						C167.48,196.89,161.21,187.08,161.21,187.08z"/>
					<path class="st14" d="M160.94,189.13c0,0-6.58-5.76-7.34-2.45c-0.77,3.31,0.74,6.83,0.74,6.83s-0.24-4.25,3.37-2.82
						c0,0-1,7.21,4.27,3.71C161.97,194.4,163.79,191.77,160.94,189.13z"/>
				</g>
				<path class="st20" d="M188.2,191.12c-0.59-2.88-1.62-7.37-3.34-6.74c-1.88,0.69-0.82,7.87-0.53,9.27
					c0.37,1.75,3.08,7.57,5.74,6.4C192.38,199.04,189.68,193.92,188.2,191.12z"/>
				<path class="st15" d="M170.23,173.57c-1.91,2.87-0.96,5.49-0.96,5.49c1.91-4.73,7.91-2.67,11.43-4.1
					C181.61,167.96,172.14,170.71,170.23,173.57z"/>
				<path class="st15" d="M196.66,170.93c2.09,2.41,2.08,5.14,2.08,5.14c-2.57-4.22-6.34-1.1-9.22-1.82
					C187.1,167.63,194.57,168.51,196.66,170.93z"/>
				<path class="st10" d="M203.86,283.25c-4.01-2.63-7.92-5.19-11.59-8.3c-3.65-3.09-7.11-6.48-10.3-10.04
					c-2.9-3.24-5.35-6.88-7.71-10.54c-0.49-1.56-0.83-3.18-1.03-4.79c-0.14-1.12-0.11-2.26,0.06-3.37c0.14-0.92,0.62-1.72,0.72-2.64
					c0.03-0.25-0.3-0.42-0.5-0.29c-1.82,1.24-1.6,4.39-1.41,6.3c0.05,0.54,0.14,1.08,0.25,1.6c-1.89-3.54-3.21-7.35-5.12-10.89
					c-0.11-0.21-0.41-0.06-0.37,0.15c1.72,9.27,7.35,18.03,13.38,25.1c6.19,7.27,14.4,14.51,23.18,18.44
					C203.92,284.23,204.34,283.57,203.86,283.25z"/>
				<path class="st10" d="M181.39,299.67c-6.83-4.85-13.29-9.59-18.74-16c-2.61-3.07-5.08-6.26-7.29-9.63
					c-2.24-3.42-3.71-7.31-5.94-10.7c-0.13-0.2-0.53-0.15-0.5,0.14c0.34,3.4,2.16,6.8,3.95,9.76c-1.26-0.8-2.7-1.39-4.01-2.12
					c-0.41-0.23-0.96,0.25-0.68,0.67c1.49,2.28,4.75,2.17,6.38,4.3c0.06,0.08,0.14,0.12,0.21,0.15c1.9,2.81,4.02,5.47,6.22,8.06
					c2.77,3.26,5.67,6.19,9.06,8.8c3.47,2.68,7.26,4.9,10.89,7.35C181.42,300.77,181.85,300,181.39,299.67z"/>
				<path class="st15" d="M203.16,200.63c-0.31-2.61-0.92-5.18-1.83-7.68c0,0-2.03,4.42-2.92,5.56c-0.95,1.21-2.76,1.33-4.16,1.39
					c-1.79,0.08-3.08,0.16-3.96,1.4c-0.99-0.92-2.58-0.97-3.97-0.96c-1.47,0.01-2.81,0.15-4.24-0.26c-2.27-0.63-4.36-2-6.4-3.16
					c-3.5-1.99-6.63-3.6-9.28-6.81c-2.73-3.3-4.09-7.32-4.88-11.51c-0.12-0.63-1.08-0.47-1.07,0.15c0.03,3.03,0.96,6.04,2.47,8.75
					c0.49,3.47-0.02,7.2,0.05,10.63c0.08,4.36,0.71,8.64,2.56,12.6c2.31,4.95,6.88,8.42,11.78,10.24c7.4,2.75,19.55,6.12,24.03-3.63
					c1.38-3,1.56-5.36,1.89-8.63C203.5,206.02,203.48,203.3,203.16,200.63z"/>
				<path class="st0" d="M180.04,202.07c0,0,10.51,3.82,16.73,0.48C196.77,202.55,190.56,223.58,180.04,202.07z"/>
			</g>
			<g>
				<g>
					<g>
						<path class="st21" d="M415.24,267.77c-2.76,0.88-3.53,2.41-3.29,4.6c0.44,3.98,7.07,6.33,10.87,3.98
							c0.08,0.12,0.23,0.22,0.47,0.25c4.22,0.6,9.65-0.27,12.24-3.14c1.66-1.84,1.91-3.9,0.73-5.96c-1.1-1.92-4.28-4.49-2.28-6.7
							c1.52-1.69,3.83-2.67,5.94-3.87c5.05-2.87,4.95-7.24-0.97-9.1c-3.48-1.09-1.05-4.73-1.18-6.86c-0.08-1.34-0.33-2.72-1.26-3.9
							c-1.67-2.1-4.39-3.94-7.71-4.3c-6.96-0.75-10.18,3.68-9.77,8.54c0.16,1.9,0.76,3.69,1.25,5.55c0.14,0.55,1.46,4.54-1.21,4
							c-0.83-0.17-1.59-0.38-2.38-0.64c-2.43-0.83-4.76-1.51-7.4-0.81c-6.56,1.76-2.42,10.2,1.07,12.58
							C411.94,263.09,419.88,266.28,415.24,267.77z"/>
						<path class="st22" d="M417.19,270.52c0.85,0.92,2.98,0.66,4.13,1.4c0.11,0.07,0.18,0.15,0.28,0.23
							c-0.03-1.2,0.07-2.38,0.41-3.56c-0.01-0.06-0.01-0.12,0.01-0.19c0.74-2.16,1.02-4.3-0.21-6.4c-0.81-1.38-3.04-2.34-4.48-3.32
							c-2.13-1.46-2.93-3.2-2.24-5.31c0.23-0.71,1.66-0.41,1.43,0.3c-1.23,3.79,4.38,5.09,6.57,7.76c0.75,0.91,1.04,1.98,1.09,3.08
							c2.11-2.72,4.8-4.72,5.26-8.34c0.5-3.88,0.04-7.95-1.13-11.74c-0.73-2.37-1.65-4.79,0.21-6.98c0.52-0.61,1.8-0.05,1.28,0.57
							c-2.25,2.66,0.26,6.57,0.75,9.46c0.47,2.79,0.61,5.57,0.35,8.36c0.34-0.34,0.73-0.65,1.17-0.94c2.16-1.41,4.65-1.95,5.77-4.16
							c0.34-0.67,1.78-0.38,1.43,0.3c-0.78,1.53-2,2.55-3.77,3.48c-1.13,0.59-2.31,1.06-3.28,1.82c-1,0.79-1.5,1.94-1.86,2.97
							c-0.05,0.13-0.14,0.22-0.26,0.28c-0.91,1.87-2.7,3.52-4.17,5.09c-2.19,2.34-2.84,4.77-2.83,7.34c0.59-0.8,1.37-1.51,2.31-2.03
							c1.87-1.01,5.08-0.79,5.22-2.95c0.05-0.72,1.53-0.73,1.48,0c-0.1,1.51-0.94,2.37-2.78,2.91c-1.25,0.37-2.39,0.51-3.45,1.2
							c-1.36,0.88-2.18,2.24-2.45,3.55c-0.02,0.08-0.05,0.13-0.09,0.19c0.04,0.26,0.07,0.52,0.12,0.79c0.12,0.72-1.36,0.71-1.48,0
							c-0.03-0.14-0.04-0.27-0.06-0.41c-0.2-0.04-0.36-0.16-0.41-0.38c-0.25-1.23-0.65-2.07-2.26-2.51
							c-1.35-0.37-2.46-0.34-3.35-1.31C415.36,270.49,416.65,269.93,417.19,270.52z"/>
					</g>
					<g>
						<polygon class="st23" points="435.44,302.36 438.44,274.57 408.47,274.57 409.78,302.36 						"/>
						<polygon class="st24" points="400.82,280.71 403.81,271.64 442.16,270.27 445.75,281.17 						"/>
					</g>
				</g>
				<g>
					<g>
						<g>
							<polygon class="st2" points="299.35,226.8 278.32,293.57 377.18,293.57 398.22,226.8 							"/>
							<path class="st25" d="M350.44,260.03c-1.34,4.46-4.93,7.32-8.01,6.39c-3.09-0.93-4.5-5.29-3.16-9.75
								c1.34-4.46,4.93-7.32,8.01-6.39C350.36,251.21,351.78,255.57,350.44,260.03z"/>
						</g>
						<g>
							<path class="st2" d="M377.95,293.91c0,4.78-3.44,8.14-7.68,8.14H262.46c-4.24,0-7.68-3.37-7.68-8.14
								c0-0.12,0.01,0.14,0.02,0.14h123.14C377.94,294.06,377.95,293.79,377.95,293.91z"/>
							<rect x="294.36" y="294.06" class="st26" width="68" height="4"/>
						</g>
					</g>
					<g>
						<polygon class="st27" points="210.26,443.96 235.07,309.78 215.61,309.78 202.95,443.96 						"/>
						<polygon class="st27" points="396.3,443.96 371.49,309.78 390.95,309.78 403.61,443.96 						"/>
					</g>
					<rect x="162.36" y="302.06" class="st28" width="301" height="10"/>
				</g>
			</g>
		</g>
		<g>
			<g>
				<path class="st29" d="M412.36,199.75c0,2.91-2.43,5.3-5.34,5.3h-140.2c-2.91,0-5.46-2.39-5.46-5.3v-27.66
					c0-2.91,2.55-5.03,5.46-5.03h140.2c2.91,0,5.34,2.12,5.34,5.03V199.75z"/>
				<path class="st30" d="M412.36,172.35v27.93c0,2.91-2.65,4.77-5.56,4.77H302.36v-38H406.8
					C409.71,167.06,412.36,169.44,412.36,172.35z"/>
				<g>
					<path class="st0" d="M404.36,173.56c0,0.83-0.67,1.5-1.5,1.5h-90c-0.83,0-1.5-0.67-1.5-1.5l0,0c0-0.83,0.67-1.5,1.5-1.5h90
						C403.69,172.06,404.36,172.73,404.36,173.56L404.36,173.56z"/>
					<path class="st0" d="M404.36,181.56c0,0.83-0.67,1.5-1.5,1.5h-90c-0.83,0-1.5-0.67-1.5-1.5l0,0c0-0.83,0.67-1.5,1.5-1.5h90
						C403.69,180.06,404.36,180.73,404.36,181.56L404.36,181.56z"/>
					<path class="st0" d="M404.36,197.56c0,0.83-0.69,1.5-1.55,1.5h-89.9c-0.86,0-1.55-0.67-1.55-1.5l0,0c0-0.83,0.69-1.5,1.55-1.5
						h89.9C403.67,196.06,404.36,196.73,404.36,197.56L404.36,197.56z"/>
					<g>
						<path class="st0" d="M370.36,188.6c0,0.86-1.37,2.46-2.22,2.46h-55.7c-0.86,0-1.07-1.6-1.07-2.46v-0.17
							c0-0.86,0.22-2.38,1.07-2.38h55.7c0.86,0,2.22,1.52,2.22,2.38V188.6z"/>
						<path class="st0" d="M403.36,187.56c0,0.83-0.67,1.5-1.5,1.5h-26c-0.83,0-1.5-0.67-1.5-1.5l0,0c0-0.83,0.67-1.5,1.5-1.5h26
							C402.69,186.06,403.36,186.73,403.36,187.56L403.36,187.56z"/>
					</g>
				</g>
			</g>
			<g>
				<g>
					<path class="st31" d="M363.36,103.2v27.51c0,0.45,0.12,1.14-0.16,1.45c-0.33,0.38-0.53,0.89-1.08,0.89h-36.64
						c-0.16,0-0.31,0-0.45,0l-0.36-0.26c-0.78-0.43-1.32-1.25-1.32-2.09V103.2c0-1,1.13-1.14,2.13-1.14h36.64
						C363.12,102.06,363.36,102.2,363.36,103.2z"/>
					<path class="st32" d="M363.36,103.2v2.76l-19.94,12.74l-20.06-12.77v-2.73c0-1,1.13-1.14,2.13-1.14h36.64
						C363.12,102.06,363.36,102.2,363.36,103.2z"/>
				</g>
				<g>
					<path class="st33" d="M390.36,121.35v27.51c0,0.45-0.2,1.06-0.48,1.38c-0.33,0.38-0.85,0.82-1.39,0.82h-36.64
						c-0.16,0-0.31,0-0.45,0l-0.04-0.18c-0.78-0.43-1-1.17-1-2.01v-27.51c0-1,0.5-2.29,1.49-2.29h36.64
						C389.49,119.06,390.36,120.35,390.36,121.35z"/>
					<path class="st34" d="M390.36,121.35v2.76l-19.94,12.73l-20.06-12.77v-2.73c0-1,0.49-2.29,1.49-2.29h36.64
						C389.49,119.06,390.36,120.35,390.36,121.35z"/>
				</g>
				<g>
					<path class="st35" d="M294.3,58.87c0,0.32-0.08,0.56-0.22,0.72c-0.15,0.16-0.33,0.27-0.56,0.33c-0.23,0.06-0.47,0.1-0.74,0.12
						c-0.27,0.01-0.52,0.03-0.75,0.07l-0.68,0.07c0.19,1.43,0.31,2.87,0.36,4.3c0.05,1.43,0.07,2.87,0.07,4.33
						c0,0.45-0.01,0.93-0.04,1.44c-0.02,0.51-0.08,1.01-0.17,1.51c-0.09,0.5-0.23,0.97-0.4,1.43c-0.18,0.45-0.42,0.85-0.72,1.2
						c-0.3,0.34-0.68,0.62-1.12,0.83c-0.45,0.21-0.98,0.31-1.6,0.31c-0.71,0-1.35-0.15-1.91-0.44c-0.56-0.3-1.03-0.68-1.42-1.16
						c-0.39-0.48-0.68-1.02-0.88-1.64c-0.2-0.61-0.3-1.23-0.3-1.87c0-0.13,0.01-0.34,0.02-0.63c0.01-0.29,0.05-0.59,0.1-0.89
						c0.05-0.3,0.14-0.57,0.25-0.8c0.11-0.23,0.27-0.35,0.46-0.35c0.11,0,0.25,0.03,0.41,0.08c0.16,0.05,0.32,0.12,0.47,0.21
						c0.15,0.09,0.27,0.19,0.38,0.31c0.11,0.12,0.16,0.24,0.16,0.37c0,0.31-0.04,0.61-0.11,0.9c-0.08,0.29-0.11,0.59-0.11,0.9
						c0,0.33,0.05,0.7,0.15,1.11c0.1,0.41,0.25,0.79,0.45,1.15c0.2,0.36,0.45,0.66,0.76,0.91c0.31,0.24,0.66,0.36,1.08,0.36
						c0.3,0,0.56-0.05,0.77-0.16c0.21-0.11,0.4-0.26,0.54-0.44c0.15-0.18,0.26-0.39,0.35-0.63c0.09-0.23,0.16-0.47,0.22-0.72
						c0.19-0.82,0.3-1.65,0.33-2.48c0.03-0.84,0.04-1.69,0.04-2.55c0-1.11-0.03-2.22-0.08-3.33c-0.06-1.11-0.15-2.22-0.3-3.33
						c-0.57,0.07-1.13,0.13-1.69,0.21c-0.56,0.07-1.12,0.11-1.69,0.11c-0.14,0-0.25-0.03-0.33-0.09c-0.08-0.06-0.12-0.16-0.12-0.3
						c0-0.28,0.09-0.5,0.26-0.65c0.18-0.15,0.4-0.26,0.67-0.32c0.45-0.12,0.9-0.21,1.37-0.26c0.47-0.05,0.93-0.11,1.38-0.18v-0.19
						c0-0.14,0.05-0.23,0.15-0.26c0.1-0.04,0.21-0.06,0.33-0.06c0.17,0,0.35,0.02,0.51,0.07c0.17,0.05,0.32,0.13,0.47,0.24
						c0.47-0.07,0.94-0.16,1.41-0.26c0.47-0.1,0.95-0.15,1.44-0.15c0.18,0,0.32,0.05,0.42,0.15C294.25,58.56,294.3,58.7,294.3,58.87
						z"/>
					<path class="st35" d="M304.19,68.76c0,0.17-0.06,0.35-0.19,0.53c-0.13,0.19-0.27,0.32-0.42,0.41
						c-0.04,0.02-0.11,0.05-0.21,0.07c-0.1,0.02-0.21,0.05-0.32,0.07c-0.11,0.02-0.22,0.04-0.33,0.06
						c-0.11,0.02-0.19,0.03-0.25,0.04l0.3,1.8c0.09,0.56,0.16,1.12,0.21,1.68c0.05,0.56,0.15,1.12,0.32,1.67
						c0.02,0.05,0.03,0.09,0.05,0.13c0.02,0.04,0.03,0.09,0.03,0.16c0,0.11-0.03,0.19-0.09,0.24c-0.06,0.06-0.14,0.1-0.23,0.13
						c-0.09,0.03-0.18,0.05-0.28,0.05c-0.1,0.01-0.19,0.01-0.28,0.01h-0.18c-0.26,0-0.46-0.02-0.6-0.06
						c-0.14-0.04-0.25-0.11-0.32-0.21c-0.08-0.1-0.13-0.22-0.15-0.37c-0.03-0.15-0.06-0.33-0.09-0.55c-0.2-1.48-0.43-2.97-0.68-4.45
						c-0.52,0.06-1.04,0.13-1.57,0.18c-0.52,0.06-1.05,0.11-1.58,0.16l-0.4,2.38c-0.02,0.15-0.04,0.35-0.07,0.6
						c-0.03,0.25-0.06,0.51-0.1,0.77c-0.04,0.26-0.08,0.51-0.13,0.74c-0.04,0.23-0.1,0.39-0.16,0.5c-0.05,0.1-0.1,0.17-0.14,0.21
						c-0.04,0.04-0.12,0.06-0.24,0.06c-0.15,0-0.3-0.03-0.45-0.08c-0.15-0.05-0.28-0.13-0.39-0.22c-0.11-0.09-0.21-0.2-0.27-0.33
						c-0.07-0.13-0.1-0.27-0.1-0.44c0-0.16,0.02-0.32,0.06-0.49c0.04-0.16,0.07-0.32,0.09-0.49c0.09-0.54,0.18-1.07,0.25-1.6
						c0.07-0.53,0.16-1.06,0.25-1.59c-0.06-0.01-0.13-0.02-0.2-0.04c-0.08-0.02-0.15-0.05-0.22-0.08c-0.07-0.03-0.13-0.07-0.18-0.12
						c-0.05-0.05-0.08-0.11-0.08-0.17c0-0.08,0.03-0.16,0.1-0.22c0.06-0.07,0.14-0.13,0.23-0.19c0.09-0.06,0.18-0.11,0.27-0.16
						c0.09-0.04,0.17-0.08,0.24-0.1c0.18-1.13,0.34-2.27,0.5-3.39c0.16-1.13,0.3-2.26,0.43-3.42c0.03-0.31,0.06-0.62,0.09-0.94
						c0.02-0.32,0.05-0.63,0.08-0.95c0.03-0.32,0.07-0.63,0.11-0.94c0.05-0.31,0.11-0.62,0.19-0.92c0.08-0.29,0.2-0.53,0.38-0.71
						c0.18-0.18,0.44-0.27,0.78-0.27c0.1,0,0.2,0.01,0.3,0.02c0.1,0.02,0.18,0.05,0.26,0.1c0.22,0.11,0.45,0.39,0.68,0.86
						c0.24,0.47,0.47,1.04,0.71,1.71c0.23,0.67,0.46,1.39,0.67,2.17c0.21,0.78,0.41,1.53,0.58,2.26c0.18,0.73,0.33,1.39,0.45,1.98
						c0.13,0.59,0.22,1.02,0.28,1.31c0.18-0.02,0.35-0.05,0.53-0.07c0.18-0.02,0.35-0.03,0.53-0.03c0.09,0,0.18,0,0.29,0.01
						c0.11,0.01,0.21,0.03,0.31,0.07c0.1,0.04,0.18,0.09,0.24,0.16C304.16,68.55,304.19,68.64,304.19,68.76z M300.24,68.66
						c-0.22-1.15-0.46-2.29-0.71-3.42c-0.26-1.13-0.56-2.26-0.9-3.38c-0.15,1.22-0.32,2.44-0.49,3.65
						c-0.18,1.21-0.37,2.41-0.57,3.62c0.45-0.06,0.9-0.14,1.34-0.21C299.35,68.83,299.79,68.75,300.24,68.66z"/>
					<path class="st35" d="M312.29,63.31c0,1.92-0.17,3.81-0.5,5.68c-0.33,1.87-0.89,3.69-1.67,5.47c0.03,0.06,0.06,0.14,0.11,0.24
						c0.05,0.11,0.1,0.22,0.15,0.33c0.05,0.12,0.09,0.23,0.13,0.33c0.04,0.11,0.06,0.18,0.06,0.23c0,0.11-0.03,0.2-0.1,0.26
						c-0.07,0.06-0.15,0.1-0.25,0.12c-0.1,0.02-0.21,0.04-0.31,0.04c-0.11,0-0.2,0-0.27,0c-0.22,0-0.41-0.01-0.58-0.04
						c-0.17-0.02-0.34-0.11-0.5-0.25c-0.12-0.1-0.25-0.34-0.41-0.74c-0.16-0.39-0.33-0.88-0.51-1.47c-0.18-0.59-0.38-1.25-0.57-1.99
						c-0.2-0.74-0.39-1.5-0.59-2.28c-0.2-0.78-0.39-1.56-0.57-2.33c-0.19-0.77-0.35-1.49-0.51-2.16c-0.15-0.66-0.29-1.25-0.4-1.76
						c-0.11-0.51-0.2-0.89-0.26-1.13c-0.09-0.41-0.19-0.82-0.31-1.23c-0.11-0.4-0.17-0.82-0.17-1.25c0-0.15,0.06-0.24,0.16-0.28
						c0.11-0.04,0.22-0.06,0.34-0.06c0.24,0,0.47,0.04,0.69,0.12c0.22,0.08,0.39,0.22,0.52,0.41c0.07,0.11,0.12,0.27,0.16,0.46
						c0.04,0.19,0.07,0.35,0.09,0.47c0.27,1.18,0.55,2.36,0.83,3.53c0.29,1.17,0.59,2.34,0.91,3.52c0.2,0.74,0.4,1.47,0.6,2.19
						c0.2,0.72,0.42,1.44,0.66,2.16c0.42-1.28,0.72-2.59,0.89-3.93c0.18-1.34,0.26-2.68,0.26-4.02c0-0.21,0-0.47-0.01-0.79
						c0-0.32-0.01-0.65-0.02-1.01c-0.01-0.36-0.02-0.73-0.04-1.11c-0.02-0.38-0.05-0.75-0.08-1.09c-0.03-0.35-0.08-0.67-0.13-0.97
						c-0.05-0.29-0.12-0.53-0.19-0.71c-0.03-0.06-0.05-0.12-0.08-0.18c-0.03-0.05-0.04-0.12-0.04-0.19c0-0.1,0.04-0.17,0.11-0.23
						c0.08-0.06,0.16-0.1,0.27-0.13c0.1-0.03,0.2-0.05,0.31-0.06c0.11-0.01,0.2-0.01,0.26-0.01c0.23,0,0.43,0.02,0.6,0.07
						c0.17,0.04,0.34,0.15,0.51,0.32c0.08,0.07,0.14,0.24,0.19,0.5c0.05,0.26,0.09,0.57,0.13,0.92c0.03,0.36,0.06,0.74,0.08,1.15
						c0.02,0.41,0.04,0.8,0.04,1.18c0.01,0.38,0.01,0.72,0.01,1.02C312.29,62.95,312.29,63.17,312.29,63.31z"/>
					<path class="st35" d="M323.56,68.76c0,0.17-0.06,0.35-0.19,0.53c-0.13,0.19-0.26,0.32-0.42,0.41
						c-0.04,0.02-0.11,0.05-0.21,0.07c-0.1,0.02-0.21,0.05-0.32,0.07c-0.11,0.02-0.22,0.04-0.33,0.06c-0.1,0.02-0.19,0.03-0.25,0.04
						l0.3,1.8c0.09,0.56,0.16,1.12,0.21,1.68c0.05,0.56,0.15,1.12,0.32,1.67c0.02,0.05,0.03,0.09,0.05,0.13
						c0.02,0.04,0.03,0.09,0.03,0.16c0,0.11-0.03,0.19-0.09,0.24c-0.06,0.06-0.14,0.1-0.23,0.13c-0.09,0.03-0.18,0.05-0.28,0.05
						c-0.1,0.01-0.19,0.01-0.28,0.01h-0.18c-0.26,0-0.46-0.02-0.6-0.06c-0.14-0.04-0.25-0.11-0.32-0.21
						c-0.07-0.1-0.13-0.22-0.15-0.37c-0.03-0.15-0.06-0.33-0.09-0.55c-0.2-1.48-0.43-2.97-0.68-4.45c-0.52,0.06-1.04,0.13-1.57,0.18
						c-0.53,0.06-1.05,0.11-1.58,0.16l-0.4,2.38c-0.02,0.15-0.04,0.35-0.07,0.6c-0.03,0.25-0.06,0.51-0.1,0.77
						c-0.04,0.26-0.08,0.51-0.13,0.74c-0.05,0.23-0.1,0.39-0.16,0.5c-0.05,0.1-0.1,0.17-0.14,0.21c-0.04,0.04-0.12,0.06-0.24,0.06
						c-0.15,0-0.3-0.03-0.45-0.08c-0.15-0.05-0.28-0.13-0.39-0.22c-0.11-0.09-0.2-0.2-0.27-0.33c-0.07-0.13-0.1-0.27-0.1-0.44
						c0-0.16,0.02-0.32,0.06-0.49c0.04-0.16,0.07-0.32,0.09-0.49c0.09-0.54,0.18-1.07,0.25-1.6c0.08-0.53,0.16-1.06,0.25-1.59
						c-0.06-0.01-0.13-0.02-0.2-0.04c-0.08-0.02-0.15-0.05-0.22-0.08c-0.07-0.03-0.13-0.07-0.18-0.12
						c-0.05-0.05-0.08-0.11-0.08-0.17c0-0.08,0.03-0.16,0.09-0.22c0.06-0.07,0.14-0.13,0.23-0.19c0.09-0.06,0.18-0.11,0.27-0.16
						c0.09-0.04,0.17-0.08,0.24-0.1c0.18-1.13,0.34-2.27,0.5-3.39c0.16-1.13,0.3-2.26,0.43-3.42c0.03-0.31,0.06-0.62,0.09-0.94
						c0.03-0.32,0.05-0.63,0.08-0.95c0.03-0.32,0.07-0.63,0.11-0.94c0.05-0.31,0.11-0.62,0.2-0.92c0.08-0.29,0.2-0.53,0.38-0.71
						c0.18-0.18,0.44-0.27,0.78-0.27c0.1,0,0.2,0.01,0.29,0.02c0.1,0.02,0.18,0.05,0.26,0.1c0.22,0.11,0.44,0.39,0.68,0.86
						c0.24,0.47,0.47,1.04,0.71,1.71c0.24,0.67,0.46,1.39,0.67,2.17c0.22,0.78,0.41,1.53,0.59,2.26c0.18,0.73,0.33,1.39,0.45,1.98
						c0.13,0.59,0.22,1.02,0.28,1.31c0.18-0.02,0.35-0.05,0.53-0.07c0.18-0.02,0.35-0.03,0.53-0.03c0.08,0,0.18,0,0.29,0.01
						c0.11,0.01,0.21,0.03,0.31,0.07c0.1,0.04,0.18,0.09,0.24,0.16C323.53,68.55,323.56,68.64,323.56,68.76z M319.61,68.66
						c-0.22-1.15-0.45-2.29-0.71-3.42c-0.26-1.13-0.56-2.26-0.9-3.38c-0.15,1.22-0.31,2.44-0.49,3.65
						c-0.18,1.21-0.37,2.41-0.57,3.62c0.45-0.06,0.9-0.14,1.34-0.21C318.72,68.83,319.16,68.75,319.61,68.66z"/>
				</g>
				<g>
					<path class="st35" d="M133.36,151.59c0,0.25-0.11,0.47-0.32,0.65c-0.22,0.18-0.47,0.32-0.77,0.42c-0.3,0.11-0.6,0.18-0.92,0.22
						c-0.31,0.04-0.56,0.07-0.75,0.07c-0.53,0-1.06-0.09-1.6-0.26c-0.53-0.17-1.01-0.44-1.43-0.81c-0.33-0.28-0.6-0.58-0.79-0.9
						c-0.19-0.32-0.34-0.66-0.44-1.01c-0.1-0.35-0.16-0.72-0.19-1.11c-0.03-0.38-0.04-0.78-0.04-1.21
						c-0.02-0.82-0.04-1.64-0.05-2.46c-0.01-0.82-0.05-1.64-0.12-2.46c-0.02-0.18-0.04-0.36-0.05-0.55
						c-0.01-0.19-0.03-0.38-0.07-0.57c-0.03-0.19-0.08-0.37-0.13-0.55c-0.06-0.18-0.14-0.34-0.25-0.5
						c-0.12,0.03-0.24,0.06-0.37,0.09c-0.12,0.03-0.24,0.04-0.37,0.04c-0.32,0-0.53-0.07-0.62-0.22c-0.09-0.14-0.14-0.36-0.14-0.65
						c0-0.32,0.05-0.57,0.15-0.76c0.1-0.18,0.22-0.33,0.37-0.44c0.14-0.11,0.31-0.21,0.48-0.3c0.18-0.09,0.34-0.21,0.48-0.35
						c0.14-0.14,0.27-0.34,0.37-0.59c0.1-0.25,0.15-0.59,0.15-1.02c0-0.54-0.08-1.08-0.24-1.61c-0.16-0.53-0.34-1.07-0.54-1.61
						c-0.2-0.54-0.38-1.09-0.54-1.65c-0.16-0.56-0.24-1.14-0.24-1.76c0-0.58,0.09-1.11,0.27-1.59c0.18-0.48,0.44-0.89,0.78-1.23
						c0.34-0.34,0.74-0.6,1.21-0.79c0.47-0.19,1-0.28,1.59-0.28c0.13,0,0.34,0.02,0.62,0.07c0.28,0.04,0.57,0.11,0.86,0.2
						c0.29,0.09,0.54,0.2,0.76,0.33c0.22,0.13,0.32,0.29,0.32,0.47c0,0.14-0.08,0.27-0.22,0.37c-0.15,0.11-0.32,0.19-0.52,0.26
						c-0.2,0.07-0.4,0.12-0.61,0.15c-0.21,0.03-0.36,0.05-0.47,0.05c-0.1,0-0.2-0.01-0.3-0.02c-0.1-0.01-0.2-0.02-0.3-0.02
						c-0.56,0-0.95,0.16-1.2,0.49c-0.24,0.33-0.37,0.75-0.37,1.27c0,0.62,0.09,1.23,0.27,1.81c0.18,0.59,0.37,1.17,0.59,1.75
						c0.22,0.58,0.42,1.16,0.6,1.75c0.18,0.59,0.27,1.19,0.27,1.81c0,0.55-0.1,1.08-0.3,1.59c-0.2,0.5-0.5,0.95-0.9,1.34
						c0.33,0.39,0.58,0.88,0.75,1.48c0.17,0.6,0.28,1.25,0.35,1.94c0.07,0.69,0.1,1.4,0.1,2.13c0,0.73,0.01,1.42,0.03,2.07
						c0.02,0.65,0.07,1.24,0.14,1.75c0.07,0.52,0.21,0.91,0.42,1.17c0.17,0.22,0.37,0.39,0.61,0.52c0.24,0.12,0.5,0.18,0.79,0.18
						c0.21,0,0.4-0.03,0.57-0.1c0.17-0.07,0.32-0.14,0.46-0.22c0.14-0.08,0.27-0.15,0.39-0.22c0.12-0.07,0.25-0.1,0.38-0.1
						c0.14,0,0.28,0.05,0.41,0.15c0.13,0.1,0.24,0.22,0.33,0.37c0.09,0.15,0.17,0.31,0.22,0.47
						C133.33,151.33,133.36,151.47,133.36,151.59z"/>
					<path class="st35" d="M141.8,138.98c0,0.33-0.05,0.59-0.14,0.77c-0.09,0.18-0.22,0.32-0.37,0.43c-0.15,0.11-0.31,0.21-0.47,0.3
						c-0.17,0.09-0.32,0.21-0.47,0.35c-0.15,0.14-0.27,0.34-0.37,0.59c-0.09,0.25-0.14,0.59-0.14,1.02c0,0.55,0.08,1.1,0.24,1.62
						c0.16,0.53,0.33,1.06,0.52,1.6c0.19,0.54,0.36,1.09,0.52,1.65c0.16,0.56,0.24,1.15,0.24,1.76c0,0.59-0.09,1.12-0.27,1.6
						c-0.18,0.48-0.44,0.88-0.78,1.22c-0.34,0.34-0.75,0.6-1.22,0.79c-0.48,0.19-1,0.28-1.58,0.28c-0.13,0-0.34-0.02-0.62-0.07
						c-0.28-0.04-0.57-0.11-0.85-0.2c-0.28-0.09-0.53-0.2-0.74-0.33c-0.21-0.13-0.32-0.27-0.32-0.44c0-0.14,0.07-0.27,0.22-0.37
						c0.14-0.11,0.32-0.19,0.52-0.26c0.2-0.07,0.4-0.12,0.6-0.15c0.2-0.03,0.35-0.05,0.47-0.05h0.63c0.53,0,0.92-0.16,1.16-0.49
						c0.24-0.33,0.37-0.75,0.37-1.27c0-0.62-0.09-1.23-0.27-1.81c-0.18-0.59-0.38-1.17-0.6-1.75c-0.22-0.58-0.41-1.16-0.59-1.75
						c-0.18-0.59-0.27-1.19-0.27-1.81c0-0.55,0.1-1.08,0.3-1.57c0.2-0.49,0.5-0.93,0.9-1.32c-0.33-0.39-0.58-0.88-0.74-1.49
						c-0.16-0.6-0.27-1.25-0.34-1.95c-0.07-0.69-0.1-1.41-0.11-2.14c-0.01-0.73-0.02-1.42-0.04-2.08c-0.02-0.65-0.07-1.24-0.14-1.75
						c-0.07-0.52-0.21-0.91-0.42-1.17c-0.16-0.22-0.35-0.39-0.6-0.52c-0.24-0.12-0.5-0.18-0.77-0.18c-0.22,0-0.42,0.03-0.58,0.1
						c-0.17,0.07-0.32,0.14-0.46,0.22c-0.14,0.08-0.27,0.15-0.4,0.22c-0.13,0.07-0.26,0.1-0.39,0.1c-0.14,0-0.28-0.05-0.4-0.15
						c-0.12-0.1-0.23-0.22-0.32-0.37c-0.09-0.15-0.17-0.31-0.23-0.47c-0.06-0.17-0.08-0.31-0.08-0.43c0-0.26,0.11-0.47,0.32-0.65
						c0.22-0.18,0.47-0.32,0.77-0.42c0.3-0.1,0.6-0.18,0.92-0.22c0.31-0.04,0.56-0.07,0.75-0.07c0.55,0,1.09,0.09,1.61,0.26
						c0.52,0.17,0.99,0.44,1.41,0.81c0.33,0.29,0.6,0.6,0.79,0.92c0.19,0.33,0.34,0.66,0.44,1.01c0.1,0.35,0.17,0.72,0.2,1.1
						c0.03,0.38,0.06,0.78,0.07,1.19c0.02,0.83,0.03,1.66,0.03,2.47c0,0.82,0.03,1.63,0.1,2.45c0.01,0.18,0.02,0.36,0.04,0.55
						c0.02,0.19,0.04,0.38,0.07,0.57c0.03,0.19,0.08,0.37,0.13,0.56c0.06,0.18,0.14,0.35,0.25,0.49c0.13-0.03,0.26-0.06,0.38-0.09
						c0.12-0.03,0.25-0.04,0.38-0.04c0.3,0,0.5,0.08,0.59,0.23C141.75,138.51,141.8,138.72,141.8,138.98z"/>
				</g>
				<g>
					<path class="st35" d="M221.29,185.44c0,0.16-0.03,0.31-0.1,0.45c-0.07,0.19-0.13,0.35-0.2,0.48c-0.06,0.13-0.14,0.22-0.23,0.29
						c-0.09,0.07-0.2,0.12-0.34,0.15c-0.13,0.03-0.3,0.04-0.51,0.04h-4.67c-0.08,0-0.18,0-0.3-0.01c-0.12-0.01-0.24-0.02-0.36-0.05
						c-0.12-0.03-0.22-0.07-0.31-0.14c-0.09-0.06-0.13-0.16-0.13-0.28c0-0.27,0.1-0.52,0.29-0.73c0.19-0.21,0.43-0.35,0.7-0.4
						c0.23-0.03,0.46-0.05,0.69-0.06c0.23-0.01,0.46-0.02,0.69-0.04c0.65-0.03,1.3-0.07,1.96-0.11c0.65-0.04,1.31-0.06,1.99-0.06
						c0.08,0,0.17,0,0.27,0.01c0.1,0.01,0.19,0.02,0.27,0.05c0.09,0.03,0.15,0.08,0.21,0.15
						C221.26,185.23,221.29,185.32,221.29,185.44z"/>
					<path class="st35" d="M233.06,184.13c0,0.14-0.04,0.25-0.11,0.33c-0.07,0.08-0.16,0.14-0.27,0.17
						c-0.1,0.04-0.22,0.06-0.34,0.07c-0.13,0.01-0.24,0.02-0.34,0.02c-0.27,0-0.51,0-0.7-0.01c-0.19-0.01-0.37-0.04-0.51-0.11
						c-0.15-0.07-0.28-0.17-0.39-0.32c-0.11-0.14-0.23-0.35-0.34-0.63c-0.47-1.02-0.88-2.06-1.23-3.13
						c-0.35-1.07-0.71-2.14-1.07-3.22c-0.3,0.78-0.61,1.54-0.94,2.3c-0.33,0.75-0.67,1.51-1.01,2.26c-0.16,0.34-0.31,0.69-0.45,1.04
						c-0.14,0.35-0.31,0.69-0.51,1.02c-0.1,0.16-0.2,0.29-0.3,0.38c-0.1,0.09-0.25,0.14-0.45,0.14c-0.15,0-0.32-0.04-0.51-0.12
						c-0.19-0.08-0.38-0.19-0.56-0.32c-0.18-0.13-0.33-0.28-0.45-0.45c-0.13-0.17-0.19-0.33-0.19-0.49c0-0.07,0.06-0.25,0.17-0.53
						c0.11-0.29,0.26-0.63,0.45-1.02c0.18-0.39,0.38-0.82,0.59-1.29c0.21-0.46,0.42-0.91,0.62-1.33c0.2-0.42,0.38-0.8,0.53-1.14
						c0.15-0.34,0.26-0.58,0.32-0.73c0.27-0.64,0.52-1.28,0.73-1.93c0.21-0.65,0.41-1.3,0.61-1.95c-0.07-0.21-0.18-0.54-0.33-0.99
						c-0.15-0.46-0.33-0.99-0.53-1.59c-0.21-0.6-0.43-1.25-0.67-1.95c-0.24-0.7-0.48-1.4-0.72-2.12c-0.24-0.71-0.47-1.41-0.7-2.08
						c-0.23-0.67-0.43-1.27-0.6-1.81c-0.17-0.54-0.31-0.98-0.41-1.34c-0.1-0.35-0.15-0.57-0.15-0.65c0-0.1,0.03-0.18,0.09-0.24
						c0.06-0.06,0.14-0.1,0.23-0.14c0.09-0.03,0.19-0.05,0.28-0.06c0.1-0.01,0.18-0.01,0.25-0.01c0.48,0,0.86,0.1,1.12,0.31
						c0.27,0.21,0.5,0.52,0.7,0.93c0.51,1.14,0.97,2.31,1.37,3.5c0.4,1.19,0.8,2.38,1.2,3.57c0.21-1.02,0.41-2.03,0.61-3.04
						c0.2-1.01,0.39-2.02,0.56-3.04c0.05-0.22,0.09-0.49,0.14-0.82c0.05-0.33,0.09-0.67,0.15-1.03c0.05-0.35,0.11-0.69,0.17-1
						c0.06-0.31,0.14-0.56,0.23-0.75c0.06-0.13,0.12-0.21,0.18-0.27c0.06-0.05,0.17-0.08,0.33-0.08c0.18,0,0.37,0.03,0.57,0.1
						c0.19,0.07,0.37,0.17,0.52,0.29c0.15,0.13,0.28,0.27,0.38,0.45c0.1,0.17,0.15,0.36,0.15,0.57c0,0.81-0.09,1.61-0.26,2.4
						c-0.17,0.79-0.33,1.59-0.46,2.4c-0.26,1.43-0.52,2.86-0.76,4.28c-0.24,1.42-0.55,2.83-0.93,4.23c0.55,1.66,1.11,3.3,1.68,4.92
						c0.57,1.62,1.2,3.23,1.89,4.82c0.09,0.2,0.18,0.39,0.27,0.58C233.02,183.7,233.06,183.9,233.06,184.13z"/>
				</g>
				<g>
					<path class="st35" d="M223.67,232.21c0,0.12-0.06,0.22-0.18,0.3c-0.12,0.08-0.26,0.14-0.42,0.19c-0.16,0.05-0.33,0.08-0.49,0.1
						c-0.17,0.02-0.3,0.02-0.39,0.02c-0.19,0-0.36-0.04-0.5-0.11c-0.14-0.08-0.27-0.19-0.4-0.34c-0.13-0.14-0.32-0.37-0.57-0.68
						c-0.25-0.32-0.53-0.67-0.84-1.07c-0.31-0.4-0.62-0.82-0.94-1.27c-0.32-0.45-0.61-0.87-0.88-1.27c-0.26-0.4-0.48-0.76-0.65-1.08
						c-0.17-0.32-0.25-0.56-0.25-0.72c0-0.28,0.08-0.55,0.24-0.8c0.16-0.25,0.31-0.49,0.44-0.72l2.35-4.38
						c0.04-0.1,0.1-0.22,0.17-0.36c0.07-0.14,0.15-0.28,0.23-0.41c0.08-0.13,0.17-0.24,0.27-0.34c0.1-0.1,0.21-0.14,0.33-0.14
						c0.12,0,0.24,0.03,0.35,0.1c0.12,0.06,0.23,0.15,0.32,0.24c0.1,0.1,0.17,0.2,0.23,0.32c0.06,0.12,0.09,0.23,0.09,0.34
						c0,0.18-0.03,0.35-0.1,0.49c-0.06,0.15-0.13,0.29-0.19,0.44c-0.44,0.87-0.88,1.74-1.32,2.61c-0.44,0.87-0.88,1.74-1.32,2.61
						c0.18,0.37,0.41,0.75,0.69,1.15c0.28,0.4,0.58,0.81,0.89,1.21c0.32,0.4,0.64,0.8,0.96,1.18c0.32,0.38,0.62,0.73,0.9,1.04
						c0.07,0.09,0.17,0.18,0.27,0.29c0.11,0.11,0.21,0.22,0.31,0.34c0.1,0.12,0.19,0.24,0.27,0.37
						C223.63,231.98,223.67,232.1,223.67,232.21z"/>
					<path class="st35" d="M232.2,215.9c0,0.39-0.05,0.77-0.14,1.14c-0.1,0.37-0.19,0.74-0.27,1.12c-0.34,1.59-0.67,3.17-0.98,4.75
						c-0.31,1.57-0.64,3.16-0.98,4.76c-0.32,1.6-0.66,3.2-1.02,4.79c-0.35,1.59-0.67,3.19-0.95,4.79c-0.02,0.15-0.04,0.31-0.06,0.48
						c-0.02,0.17-0.06,0.34-0.11,0.49c-0.05,0.16-0.13,0.28-0.24,0.39c-0.11,0.1-0.26,0.15-0.45,0.15c-0.15,0-0.33-0.03-0.54-0.09
						c-0.21-0.06-0.41-0.14-0.6-0.24c-0.19-0.1-0.35-0.23-0.48-0.37c-0.13-0.15-0.19-0.31-0.19-0.49c0-0.06,0-0.13,0.02-0.19
						c0.01-0.06,0.02-0.13,0.02-0.19c0.16-0.77,0.33-1.55,0.52-2.32c0.18-0.77,0.37-1.55,0.55-2.32l3.19-14.28
						c0.04-0.17,0.09-0.42,0.15-0.75c0.06-0.33,0.12-0.66,0.19-1c0.07-0.34,0.14-0.66,0.22-0.96c0.08-0.3,0.15-0.52,0.21-0.64
						c0.07-0.12,0.13-0.2,0.19-0.25c0.06-0.05,0.16-0.07,0.29-0.07c0.17,0,0.35,0.03,0.52,0.11c0.18,0.07,0.34,0.16,0.48,0.28
						c0.15,0.12,0.26,0.26,0.35,0.42C232.16,215.54,232.2,215.71,232.2,215.9z"/>
					<path class="st35" d="M240.31,225.66c0,0.13-0.02,0.26-0.07,0.39c-0.05,0.13-0.11,0.26-0.18,0.38
						c-0.07,0.12-0.15,0.25-0.23,0.37c-0.08,0.12-0.15,0.24-0.2,0.35l-2.35,4.38c-0.05,0.1-0.11,0.22-0.18,0.36
						c-0.06,0.14-0.14,0.29-0.22,0.43c-0.08,0.14-0.17,0.26-0.27,0.35c-0.1,0.1-0.21,0.15-0.33,0.15c-0.12,0-0.24-0.03-0.35-0.1
						c-0.12-0.06-0.23-0.15-0.32-0.24c-0.1-0.1-0.17-0.21-0.23-0.33c-0.06-0.12-0.09-0.24-0.09-0.36c0-0.16,0.03-0.32,0.1-0.48
						c0.06-0.16,0.13-0.3,0.19-0.43c0.44-0.89,0.88-1.77,1.32-2.63c0.44-0.86,0.88-1.73,1.32-2.63c-0.18-0.37-0.41-0.75-0.69-1.15
						c-0.28-0.4-0.58-0.81-0.9-1.21c-0.32-0.4-0.64-0.8-0.97-1.18c-0.33-0.38-0.63-0.73-0.89-1.04c-0.08-0.07-0.17-0.17-0.27-0.27
						c-0.11-0.11-0.21-0.22-0.31-0.34c-0.1-0.12-0.19-0.24-0.27-0.35c-0.08-0.12-0.11-0.24-0.11-0.36c0-0.13,0.06-0.23,0.18-0.31
						c0.12-0.08,0.26-0.14,0.42-0.19c0.16-0.04,0.32-0.07,0.49-0.09c0.17-0.02,0.3-0.02,0.4-0.02c0.19,0,0.36,0.04,0.5,0.11
						c0.14,0.08,0.27,0.18,0.4,0.31c0.13,0.15,0.32,0.38,0.57,0.7c0.25,0.32,0.53,0.67,0.84,1.07c0.31,0.4,0.62,0.82,0.94,1.27
						c0.32,0.45,0.62,0.87,0.88,1.27c0.26,0.4,0.48,0.77,0.65,1.09C240.23,225.26,240.31,225.5,240.31,225.66z"/>
				</g>
				<g>
					<path class="st35" d="M54.72,249.49c0,0.28,0,0.61-0.01,0.99c-0.01,0.38-0.03,0.8-0.05,1.25c-0.03,0.45-0.07,0.91-0.13,1.38
						c-0.06,0.47-0.14,0.93-0.25,1.39c-0.11,0.45-0.24,0.88-0.4,1.29c-0.16,0.41-0.36,0.76-0.59,1.07c-0.23,0.3-0.5,0.54-0.81,0.72
						c-0.31,0.18-0.66,0.27-1.06,0.27c-0.38,0-0.72-0.08-1.01-0.24c-0.29-0.16-0.55-0.37-0.76-0.63c-0.21-0.26-0.4-0.55-0.55-0.89
						c-0.15-0.33-0.28-0.68-0.38-1.03c-0.1-0.36-0.18-0.71-0.25-1.06c-0.07-0.35-0.12-0.68-0.16-0.97c-0.11-0.77-0.2-1.54-0.26-2.31
						c-0.06-0.77-0.08-1.55-0.08-2.34c0-0.79,0.03-1.58,0.1-2.37c0.07-0.79,0.2-1.56,0.41-2.31c-0.05-0.07-0.09-0.15-0.13-0.22
						c-0.04-0.07-0.06-0.15-0.06-0.24c0-0.05,0-0.09,0.01-0.13c0.01-0.04,0.02-0.07,0.04-0.12c0.1-0.32,0.25-0.67,0.43-1.02
						c0.18-0.36,0.39-0.68,0.64-0.98c0.25-0.3,0.53-0.54,0.85-0.73c0.32-0.19,0.67-0.29,1.06-0.29c0.34,0,0.65,0.07,0.91,0.19
						c0.27,0.13,0.5,0.3,0.71,0.52c0.2,0.22,0.38,0.47,0.52,0.75c0.15,0.28,0.27,0.57,0.37,0.88c0.1,0.31,0.19,0.62,0.25,0.92
						c0.07,0.31,0.13,0.6,0.18,0.86c0.16,0.89,0.28,1.79,0.37,2.68C54.68,247.68,54.72,248.58,54.72,249.49z M50.36,243.3
						c-0.15,0.35-0.26,0.73-0.35,1.13c-0.09,0.41-0.16,0.82-0.21,1.24c-0.05,0.42-0.08,0.84-0.1,1.26
						c-0.02,0.42-0.02,0.81-0.02,1.19c0,0.14,0.01,0.36,0.02,0.67c0.01,0.31,0.04,0.67,0.07,1.08c0.03,0.41,0.07,0.85,0.12,1.33
						c0.05,0.48,0.1,0.96,0.17,1.44c0.07,0.48,0.14,0.95,0.23,1.39c0.09,0.44,0.18,0.83,0.29,1.17c0.11,0.34,0.23,0.62,0.36,0.82
						c0.13,0.21,0.27,0.31,0.43,0.31c0.11,0,0.21-0.05,0.3-0.16c0.09-0.11,0.18-0.23,0.25-0.38c0.07-0.15,0.14-0.29,0.19-0.44
						c0.05-0.14,0.09-0.26,0.12-0.34c0.24-0.77,0.41-1.55,0.51-2.33c0.1-0.78,0.15-1.58,0.15-2.39c0-0.6-0.01-1.24-0.04-1.91
						c-0.03-0.67-0.08-1.34-0.15-2.01c-0.07-0.67-0.17-1.33-0.3-1.98c-0.13-0.65-0.3-1.26-0.5-1.83c-0.07-0.19-0.14-0.37-0.22-0.56
						c-0.08-0.19-0.19-0.35-0.34-0.49c-0.02,0.02-0.07,0.11-0.17,0.28c-0.1,0.17-0.2,0.36-0.31,0.56c-0.11,0.2-0.21,0.4-0.3,0.58
						C50.43,243.15,50.38,243.26,50.36,243.3z"/>
					<path class="st35" d="M59.81,256.91c0,0.19-0.07,0.31-0.19,0.37c-0.13,0.06-0.28,0.09-0.44,0.09c-0.12,0-0.27-0.02-0.44-0.05
						c-0.17-0.03-0.32-0.07-0.44-0.12c-0.16-0.07-0.28-0.16-0.35-0.25c-0.07-0.1-0.12-0.21-0.15-0.33
						c-0.03-0.12-0.04-0.25-0.04-0.38c0-0.13,0-0.28-0.01-0.42c-0.15-2.5-0.26-4.99-0.35-7.45c-0.09-2.47-0.13-4.95-0.13-7.45
						c0-0.16,0.02-0.29,0.07-0.39c0.05-0.1,0.17-0.15,0.36-0.15c0.22,0,0.45,0.05,0.68,0.16c0.23,0.11,0.4,0.26,0.49,0.48
						c0.03,0.07,0.06,0.17,0.07,0.33c0.01,0.15,0.02,0.32,0.03,0.49c0.01,0.17,0.01,0.34,0.01,0.5c0,0.17,0,0.29,0.01,0.38
						c0.06,2.09,0.14,4.18,0.22,6.26c0.08,2.08,0.23,4.16,0.44,6.26c0.02,0.28,0.06,0.56,0.1,0.84
						C59.79,256.35,59.81,256.63,59.81,256.91z"/>
					<path class="st35" d="M68.9,249.49c0,0.28,0,0.61-0.01,0.99c-0.01,0.38-0.03,0.8-0.06,1.25c-0.03,0.45-0.07,0.91-0.13,1.38
						c-0.06,0.47-0.14,0.93-0.25,1.39c-0.11,0.45-0.24,0.88-0.4,1.29c-0.16,0.41-0.36,0.76-0.59,1.07c-0.23,0.3-0.5,0.54-0.81,0.72
						c-0.31,0.18-0.66,0.27-1.06,0.27c-0.38,0-0.72-0.08-1.01-0.24c-0.29-0.16-0.55-0.37-0.76-0.63c-0.22-0.26-0.4-0.55-0.55-0.89
						c-0.15-0.33-0.28-0.68-0.38-1.03c-0.1-0.36-0.19-0.71-0.25-1.06c-0.07-0.35-0.12-0.68-0.16-0.97c-0.11-0.77-0.2-1.54-0.26-2.31
						c-0.06-0.77-0.08-1.55-0.08-2.34c0-0.79,0.03-1.58,0.1-2.37c0.06-0.79,0.2-1.56,0.41-2.31c-0.05-0.07-0.09-0.15-0.13-0.22
						c-0.04-0.07-0.06-0.15-0.06-0.24c0-0.05,0-0.09,0.01-0.13c0.01-0.04,0.02-0.07,0.04-0.12c0.11-0.32,0.25-0.67,0.43-1.02
						c0.18-0.36,0.39-0.68,0.64-0.98c0.25-0.3,0.53-0.54,0.85-0.73c0.32-0.19,0.67-0.29,1.06-0.29c0.34,0,0.65,0.07,0.91,0.19
						c0.27,0.13,0.5,0.3,0.71,0.52c0.2,0.22,0.38,0.47,0.52,0.75c0.15,0.28,0.27,0.57,0.37,0.88c0.1,0.31,0.19,0.62,0.26,0.92
						c0.07,0.31,0.13,0.6,0.18,0.86c0.16,0.89,0.28,1.79,0.37,2.68C68.86,247.68,68.9,248.58,68.9,249.49z M64.54,243.3
						c-0.15,0.35-0.26,0.73-0.35,1.13c-0.09,0.41-0.16,0.82-0.21,1.24c-0.05,0.42-0.08,0.84-0.1,1.26
						c-0.02,0.42-0.02,0.81-0.02,1.19c0,0.14,0.01,0.36,0.02,0.67c0.01,0.31,0.03,0.67,0.07,1.08c0.03,0.41,0.07,0.85,0.12,1.33
						c0.05,0.48,0.11,0.96,0.17,1.44c0.06,0.48,0.14,0.95,0.23,1.39c0.09,0.44,0.18,0.83,0.29,1.17c0.11,0.34,0.23,0.62,0.36,0.82
						c0.13,0.21,0.27,0.31,0.43,0.31c0.11,0,0.2-0.05,0.3-0.16c0.09-0.11,0.18-0.23,0.25-0.38c0.07-0.15,0.14-0.29,0.19-0.44
						c0.05-0.14,0.09-0.26,0.12-0.34c0.24-0.77,0.41-1.55,0.51-2.33c0.1-0.78,0.15-1.58,0.15-2.39c0-0.6-0.01-1.24-0.04-1.91
						c-0.03-0.67-0.08-1.34-0.15-2.01c-0.07-0.67-0.17-1.33-0.3-1.98c-0.13-0.65-0.3-1.26-0.5-1.83c-0.06-0.19-0.14-0.37-0.22-0.56
						c-0.08-0.19-0.19-0.35-0.34-0.49c-0.02,0.02-0.07,0.11-0.17,0.28c-0.1,0.17-0.2,0.36-0.31,0.56c-0.11,0.2-0.21,0.4-0.3,0.58
						C64.61,243.15,64.56,243.26,64.54,243.3z"/>
					<path class="st35" d="M73.99,256.91c0,0.19-0.06,0.31-0.19,0.37c-0.13,0.06-0.28,0.09-0.44,0.09c-0.12,0-0.27-0.02-0.44-0.05
						c-0.17-0.03-0.32-0.07-0.44-0.12c-0.16-0.07-0.28-0.16-0.35-0.25c-0.07-0.1-0.12-0.21-0.15-0.33
						c-0.03-0.12-0.04-0.25-0.04-0.38c0-0.13,0-0.28-0.01-0.42c-0.15-2.5-0.26-4.99-0.35-7.45c-0.09-2.47-0.13-4.95-0.13-7.45
						c0-0.16,0.02-0.29,0.07-0.39c0.05-0.1,0.17-0.15,0.37-0.15c0.22,0,0.44,0.05,0.68,0.16c0.23,0.11,0.4,0.26,0.49,0.48
						c0.03,0.07,0.06,0.17,0.07,0.33c0.01,0.15,0.02,0.32,0.03,0.49c0.01,0.17,0.01,0.34,0.01,0.5c0,0.17,0,0.29,0.01,0.38
						c0.07,2.09,0.14,4.18,0.22,6.26c0.08,2.08,0.23,4.16,0.44,6.26c0.02,0.28,0.06,0.56,0.1,0.84
						C73.97,256.35,73.99,256.63,73.99,256.91z"/>
					<path class="st35" d="M83.08,249.49c0,0.28,0,0.61-0.01,0.99c-0.01,0.38-0.03,0.8-0.05,1.25c-0.03,0.45-0.07,0.91-0.13,1.38
						c-0.06,0.47-0.14,0.93-0.25,1.39c-0.11,0.45-0.24,0.88-0.4,1.29c-0.16,0.41-0.36,0.76-0.59,1.07c-0.23,0.3-0.5,0.54-0.81,0.72
						c-0.31,0.18-0.66,0.27-1.06,0.27c-0.38,0-0.72-0.08-1.01-0.24c-0.29-0.16-0.55-0.37-0.76-0.63c-0.22-0.26-0.4-0.55-0.56-0.89
						c-0.15-0.33-0.28-0.68-0.38-1.03c-0.1-0.36-0.18-0.71-0.25-1.06c-0.06-0.35-0.12-0.68-0.16-0.97c-0.11-0.77-0.2-1.54-0.26-2.31
						c-0.06-0.77-0.09-1.55-0.09-2.34c0-0.79,0.03-1.58,0.1-2.37c0.07-0.79,0.2-1.56,0.41-2.31c-0.05-0.07-0.09-0.15-0.13-0.22
						c-0.04-0.07-0.06-0.15-0.06-0.24c0-0.05,0-0.09,0.01-0.13c0.01-0.04,0.02-0.07,0.04-0.12c0.11-0.32,0.25-0.67,0.43-1.02
						c0.18-0.36,0.39-0.68,0.64-0.98c0.25-0.3,0.53-0.54,0.85-0.73c0.32-0.19,0.67-0.29,1.06-0.29c0.34,0,0.65,0.07,0.91,0.19
						c0.27,0.13,0.5,0.3,0.71,0.52c0.2,0.22,0.38,0.47,0.52,0.75c0.15,0.28,0.27,0.57,0.37,0.88c0.1,0.31,0.19,0.62,0.26,0.92
						c0.07,0.31,0.13,0.6,0.18,0.86c0.16,0.89,0.28,1.79,0.37,2.68C83.03,247.68,83.08,248.58,83.08,249.49z M78.72,243.3
						c-0.15,0.35-0.26,0.73-0.35,1.13c-0.09,0.41-0.16,0.82-0.21,1.24c-0.05,0.42-0.08,0.84-0.1,1.26
						c-0.02,0.42-0.02,0.81-0.02,1.19c0,0.14,0.01,0.36,0.02,0.67c0.01,0.31,0.03,0.67,0.07,1.08c0.03,0.41,0.07,0.85,0.12,1.33
						c0.05,0.48,0.11,0.96,0.17,1.44c0.07,0.48,0.14,0.95,0.22,1.39c0.09,0.44,0.18,0.83,0.29,1.17c0.11,0.34,0.23,0.62,0.36,0.82
						c0.13,0.21,0.27,0.31,0.43,0.31c0.11,0,0.21-0.05,0.3-0.16c0.09-0.11,0.18-0.23,0.25-0.38c0.07-0.15,0.14-0.29,0.19-0.44
						c0.05-0.14,0.09-0.26,0.12-0.34c0.24-0.77,0.41-1.55,0.51-2.33c0.1-0.78,0.15-1.58,0.15-2.39c0-0.6-0.01-1.24-0.04-1.91
						c-0.03-0.67-0.08-1.34-0.15-2.01c-0.07-0.67-0.17-1.33-0.3-1.98c-0.13-0.65-0.3-1.26-0.5-1.83c-0.07-0.19-0.14-0.37-0.22-0.56
						c-0.08-0.19-0.19-0.35-0.34-0.49c-0.02,0.02-0.07,0.11-0.17,0.28c-0.1,0.17-0.2,0.36-0.31,0.56c-0.11,0.2-0.21,0.4-0.3,0.58
						C78.79,243.15,78.73,243.26,78.72,243.3z"/>
					<path class="st35" d="M88.17,256.91c0,0.19-0.06,0.31-0.19,0.37c-0.13,0.06-0.28,0.09-0.44,0.09c-0.12,0-0.27-0.02-0.44-0.05
						c-0.17-0.03-0.32-0.07-0.44-0.12c-0.16-0.07-0.28-0.16-0.35-0.25c-0.07-0.1-0.12-0.21-0.15-0.33
						c-0.03-0.12-0.04-0.25-0.04-0.38c0-0.13,0-0.28-0.01-0.42c-0.15-2.5-0.26-4.99-0.35-7.45c-0.09-2.47-0.13-4.95-0.13-7.45
						c0-0.16,0.02-0.29,0.07-0.39c0.05-0.1,0.17-0.15,0.36-0.15c0.22,0,0.44,0.05,0.68,0.16c0.23,0.11,0.4,0.26,0.49,0.48
						c0.03,0.07,0.05,0.17,0.07,0.33c0.01,0.15,0.02,0.32,0.03,0.49c0.01,0.17,0.01,0.34,0.01,0.5c0,0.17,0,0.29,0.01,0.38
						c0.07,2.09,0.14,4.18,0.22,6.26c0.08,2.08,0.23,4.16,0.44,6.26c0.02,0.28,0.06,0.56,0.1,0.84
						C88.14,256.35,88.17,256.63,88.17,256.91z"/>
					<path class="st35" d="M93.4,256.91c0,0.19-0.07,0.31-0.2,0.37c-0.13,0.06-0.28,0.09-0.44,0.09c-0.12,0-0.27-0.02-0.44-0.05
						c-0.17-0.03-0.32-0.07-0.44-0.12c-0.16-0.07-0.28-0.16-0.35-0.25c-0.07-0.1-0.12-0.21-0.15-0.33
						c-0.03-0.12-0.04-0.25-0.04-0.38c0-0.13,0-0.28-0.01-0.42c-0.15-2.5-0.26-4.99-0.35-7.45c-0.09-2.47-0.13-4.95-0.13-7.45
						c0-0.16,0.02-0.29,0.07-0.39c0.05-0.1,0.17-0.15,0.37-0.15c0.22,0,0.44,0.05,0.68,0.16c0.23,0.11,0.4,0.26,0.49,0.48
						c0.03,0.07,0.05,0.17,0.07,0.33c0.01,0.15,0.02,0.32,0.03,0.49c0.01,0.17,0.01,0.34,0.01,0.5c0,0.17,0,0.29,0.01,0.38
						c0.06,2.09,0.14,4.18,0.22,6.26c0.08,2.08,0.23,4.16,0.44,6.26c0.02,0.28,0.06,0.56,0.1,0.84
						C93.38,256.35,93.4,256.63,93.4,256.91z"/>
				</g>
				<g>
					<path class="st35" d="M360.19,82.98c0,0.28,0,0.61-0.01,0.99c-0.01,0.39-0.03,0.8-0.05,1.25c-0.03,0.45-0.07,0.9-0.13,1.38
						c-0.06,0.47-0.14,0.93-0.25,1.39c-0.1,0.46-0.24,0.88-0.4,1.29c-0.16,0.41-0.36,0.76-0.59,1.06c-0.23,0.3-0.5,0.55-0.81,0.73
						c-0.31,0.18-0.66,0.27-1.06,0.27c-0.38,0-0.72-0.08-1.01-0.24c-0.29-0.16-0.55-0.37-0.76-0.63c-0.22-0.26-0.4-0.56-0.56-0.89
						c-0.15-0.33-0.28-0.68-0.38-1.03c-0.1-0.36-0.18-0.71-0.25-1.07c-0.07-0.35-0.12-0.68-0.16-0.97c-0.11-0.77-0.2-1.54-0.25-2.31
						c-0.06-0.77-0.08-1.55-0.08-2.34c0-0.79,0.03-1.58,0.1-2.37c0.07-0.79,0.2-1.56,0.41-2.31c-0.05-0.07-0.09-0.15-0.13-0.22
						c-0.04-0.07-0.06-0.15-0.06-0.24c0-0.05,0-0.09,0.01-0.13c0.01-0.04,0.02-0.08,0.04-0.12c0.1-0.32,0.25-0.67,0.42-1.02
						c0.18-0.36,0.39-0.68,0.64-0.98c0.25-0.3,0.53-0.54,0.85-0.73c0.32-0.19,0.67-0.29,1.06-0.29c0.34,0,0.65,0.07,0.91,0.2
						c0.27,0.13,0.5,0.3,0.71,0.52c0.2,0.22,0.38,0.47,0.52,0.75c0.15,0.28,0.27,0.57,0.37,0.88c0.1,0.31,0.19,0.62,0.25,0.92
						c0.07,0.31,0.13,0.6,0.18,0.87c0.16,0.89,0.28,1.79,0.37,2.68C360.15,81.17,360.19,82.07,360.19,82.98z M355.84,76.8
						c-0.15,0.35-0.26,0.73-0.35,1.13c-0.09,0.41-0.16,0.82-0.21,1.24c-0.05,0.42-0.08,0.84-0.1,1.26
						c-0.02,0.42-0.02,0.81-0.02,1.19c0,0.14,0.01,0.36,0.02,0.68c0.01,0.31,0.03,0.67,0.07,1.08c0.03,0.41,0.07,0.85,0.12,1.33
						c0.05,0.48,0.1,0.96,0.17,1.44c0.07,0.48,0.14,0.94,0.23,1.39c0.08,0.44,0.18,0.83,0.29,1.18c0.11,0.34,0.23,0.61,0.36,0.82
						c0.13,0.21,0.27,0.31,0.43,0.31c0.11,0,0.2-0.05,0.3-0.16c0.09-0.11,0.18-0.23,0.25-0.38c0.07-0.15,0.14-0.29,0.19-0.44
						c0.05-0.15,0.09-0.26,0.12-0.34c0.24-0.77,0.41-1.55,0.51-2.33c0.1-0.78,0.15-1.58,0.15-2.39c0-0.6-0.01-1.24-0.04-1.91
						c-0.03-0.67-0.08-1.34-0.15-2.01c-0.07-0.67-0.17-1.33-0.3-1.98c-0.13-0.65-0.3-1.26-0.5-1.83c-0.07-0.19-0.14-0.37-0.22-0.56
						c-0.08-0.19-0.19-0.35-0.34-0.49c-0.02,0.02-0.07,0.11-0.17,0.28c-0.1,0.17-0.2,0.36-0.31,0.56c-0.11,0.2-0.21,0.4-0.3,0.58
						C355.91,76.64,355.85,76.75,355.84,76.8z"/>
					<path class="st35" d="M365.29,90.41c0,0.19-0.07,0.31-0.2,0.37c-0.13,0.06-0.28,0.09-0.44,0.09c-0.12,0-0.27-0.02-0.44-0.05
						c-0.17-0.03-0.32-0.07-0.44-0.12c-0.16-0.07-0.28-0.16-0.35-0.26c-0.07-0.1-0.12-0.21-0.15-0.33
						c-0.03-0.12-0.04-0.25-0.04-0.38s0-0.27-0.01-0.42c-0.15-2.5-0.26-4.98-0.35-7.45c-0.09-2.47-0.14-4.95-0.14-7.45
						c0-0.16,0.03-0.29,0.07-0.39c0.05-0.1,0.17-0.15,0.37-0.15c0.22,0,0.44,0.05,0.67,0.16c0.23,0.11,0.4,0.26,0.49,0.48
						c0.03,0.07,0.06,0.17,0.07,0.33c0.01,0.15,0.02,0.32,0.03,0.49c0.01,0.17,0.01,0.34,0.01,0.5c0,0.17,0,0.29,0.01,0.38
						c0.06,2.09,0.14,4.18,0.22,6.26c0.08,2.08,0.23,4.16,0.44,6.26c0.02,0.28,0.06,0.56,0.1,0.84
						C365.26,89.84,365.29,90.12,365.29,90.41z"/>
					<path class="st35" d="M374.37,82.98c0,0.28-0.01,0.61-0.01,0.99c-0.01,0.39-0.03,0.8-0.05,1.25c-0.03,0.45-0.07,0.9-0.13,1.38
						c-0.06,0.47-0.14,0.93-0.25,1.39c-0.11,0.46-0.24,0.88-0.4,1.29c-0.16,0.41-0.36,0.76-0.59,1.06c-0.23,0.3-0.5,0.55-0.81,0.73
						c-0.31,0.18-0.66,0.27-1.06,0.27c-0.38,0-0.72-0.08-1.01-0.24c-0.29-0.16-0.55-0.37-0.76-0.63c-0.21-0.26-0.4-0.56-0.55-0.89
						c-0.15-0.33-0.28-0.68-0.38-1.03c-0.1-0.36-0.19-0.71-0.25-1.07c-0.07-0.35-0.12-0.68-0.16-0.97c-0.11-0.77-0.2-1.54-0.26-2.31
						c-0.06-0.77-0.08-1.55-0.08-2.34c0-0.79,0.03-1.58,0.1-2.37c0.06-0.79,0.2-1.56,0.41-2.31c-0.05-0.07-0.09-0.15-0.13-0.22
						c-0.04-0.07-0.06-0.15-0.06-0.24c0-0.05,0-0.09,0.01-0.13c0.01-0.04,0.02-0.08,0.04-0.12c0.1-0.32,0.25-0.67,0.43-1.02
						c0.18-0.36,0.39-0.68,0.64-0.98c0.25-0.3,0.53-0.54,0.84-0.73c0.32-0.19,0.67-0.29,1.06-0.29c0.34,0,0.64,0.07,0.91,0.2
						c0.27,0.13,0.5,0.3,0.71,0.52c0.2,0.22,0.38,0.47,0.52,0.75c0.15,0.28,0.27,0.57,0.37,0.88c0.1,0.31,0.19,0.62,0.26,0.92
						c0.07,0.31,0.13,0.6,0.18,0.87c0.16,0.89,0.28,1.79,0.36,2.68C374.33,81.17,374.37,82.07,374.37,82.98z M370.01,76.8
						c-0.15,0.35-0.26,0.73-0.35,1.13c-0.09,0.41-0.16,0.82-0.21,1.24c-0.05,0.42-0.08,0.84-0.1,1.26
						c-0.02,0.42-0.02,0.81-0.02,1.19c0,0.14,0.01,0.36,0.02,0.68c0.01,0.31,0.04,0.67,0.07,1.08c0.03,0.41,0.07,0.85,0.12,1.33
						c0.05,0.48,0.11,0.96,0.17,1.44c0.07,0.48,0.14,0.94,0.23,1.39c0.09,0.44,0.18,0.83,0.29,1.18c0.11,0.34,0.23,0.61,0.36,0.82
						c0.13,0.21,0.27,0.31,0.43,0.31c0.1,0,0.2-0.05,0.3-0.16c0.09-0.11,0.18-0.23,0.25-0.38c0.07-0.15,0.14-0.29,0.19-0.44
						c0.05-0.15,0.09-0.26,0.12-0.34c0.24-0.77,0.42-1.55,0.51-2.33c0.1-0.78,0.15-1.58,0.15-2.39c0-0.6-0.01-1.24-0.04-1.91
						c-0.03-0.67-0.08-1.34-0.15-2.01c-0.07-0.67-0.17-1.33-0.3-1.98c-0.13-0.65-0.3-1.26-0.5-1.83c-0.07-0.19-0.14-0.37-0.22-0.56
						c-0.08-0.19-0.19-0.35-0.34-0.49c-0.02,0.02-0.07,0.11-0.17,0.28c-0.1,0.17-0.2,0.36-0.31,0.56c-0.11,0.2-0.21,0.4-0.3,0.58
						C370.08,76.64,370.03,76.75,370.01,76.8z"/>
					<path class="st35" d="M379.46,90.41c0,0.19-0.07,0.31-0.19,0.37c-0.13,0.06-0.28,0.09-0.44,0.09c-0.12,0-0.27-0.02-0.44-0.05
						c-0.17-0.03-0.32-0.07-0.44-0.12c-0.16-0.07-0.28-0.16-0.35-0.26c-0.07-0.1-0.13-0.21-0.15-0.33
						c-0.03-0.12-0.04-0.25-0.04-0.38s0-0.27-0.01-0.42c-0.14-2.5-0.26-4.98-0.35-7.45c-0.09-2.47-0.13-4.95-0.13-7.45
						c0-0.16,0.02-0.29,0.07-0.39c0.05-0.1,0.17-0.15,0.37-0.15c0.22,0,0.44,0.05,0.68,0.16c0.23,0.11,0.4,0.26,0.49,0.48
						c0.03,0.07,0.06,0.17,0.07,0.33c0.01,0.15,0.02,0.32,0.03,0.49c0.01,0.17,0.01,0.34,0.01,0.5c0,0.17,0,0.29,0.01,0.38
						c0.07,2.09,0.14,4.18,0.22,6.26c0.08,2.08,0.23,4.16,0.44,6.26c0.02,0.28,0.06,0.56,0.1,0.84
						C379.44,89.84,379.46,90.12,379.46,90.41z"/>
					<path class="st35" d="M388.55,82.98c0,0.28,0,0.61-0.01,0.99c-0.01,0.39-0.03,0.8-0.06,1.25c-0.03,0.45-0.07,0.9-0.13,1.38
						c-0.06,0.47-0.14,0.93-0.25,1.39c-0.11,0.46-0.24,0.88-0.4,1.29c-0.16,0.41-0.36,0.76-0.59,1.06c-0.23,0.3-0.5,0.55-0.81,0.73
						c-0.31,0.18-0.66,0.27-1.06,0.27c-0.38,0-0.72-0.08-1.01-0.24c-0.29-0.16-0.55-0.37-0.76-0.63c-0.21-0.26-0.4-0.56-0.55-0.89
						c-0.15-0.33-0.28-0.68-0.38-1.03c-0.1-0.36-0.19-0.71-0.25-1.07c-0.07-0.35-0.12-0.68-0.16-0.97c-0.11-0.77-0.2-1.54-0.26-2.31
						c-0.06-0.77-0.08-1.55-0.08-2.34c0-0.79,0.03-1.58,0.1-2.37c0.06-0.79,0.2-1.56,0.41-2.31c-0.05-0.07-0.09-0.15-0.13-0.22
						c-0.04-0.07-0.06-0.15-0.06-0.24c0-0.05,0-0.09,0.01-0.13c0.01-0.04,0.02-0.08,0.04-0.12c0.11-0.32,0.25-0.67,0.43-1.02
						c0.18-0.36,0.39-0.68,0.64-0.98c0.25-0.3,0.53-0.54,0.85-0.73c0.32-0.19,0.67-0.29,1.06-0.29c0.34,0,0.64,0.07,0.91,0.2
						c0.27,0.13,0.5,0.3,0.71,0.52c0.2,0.22,0.38,0.47,0.52,0.75c0.15,0.28,0.27,0.57,0.37,0.88c0.1,0.31,0.19,0.62,0.26,0.92
						c0.07,0.31,0.13,0.6,0.18,0.87c0.16,0.89,0.28,1.79,0.36,2.68C388.51,81.17,388.55,82.07,388.55,82.98z M384.19,76.8
						c-0.15,0.35-0.26,0.73-0.35,1.13c-0.09,0.41-0.16,0.82-0.21,1.24c-0.05,0.42-0.08,0.84-0.1,1.26
						c-0.02,0.42-0.02,0.81-0.02,1.19c0,0.14,0,0.36,0.02,0.68c0.01,0.31,0.03,0.67,0.07,1.08c0.03,0.41,0.07,0.85,0.12,1.33
						c0.05,0.48,0.1,0.96,0.17,1.44c0.06,0.48,0.14,0.94,0.22,1.39c0.09,0.44,0.18,0.83,0.29,1.18c0.11,0.34,0.23,0.61,0.36,0.82
						c0.13,0.21,0.27,0.31,0.43,0.31c0.11,0,0.21-0.05,0.3-0.16c0.09-0.11,0.18-0.23,0.25-0.38c0.07-0.15,0.13-0.29,0.19-0.44
						c0.05-0.15,0.09-0.26,0.12-0.34c0.24-0.77,0.41-1.55,0.51-2.33c0.1-0.78,0.15-1.58,0.15-2.39c0-0.6-0.01-1.24-0.04-1.91
						c-0.03-0.67-0.08-1.34-0.15-2.01c-0.07-0.67-0.17-1.33-0.3-1.98c-0.13-0.65-0.3-1.26-0.5-1.83c-0.06-0.19-0.14-0.37-0.22-0.56
						c-0.08-0.19-0.2-0.35-0.34-0.49c-0.02,0.02-0.07,0.11-0.17,0.28c-0.1,0.17-0.2,0.36-0.31,0.56c-0.11,0.2-0.21,0.4-0.3,0.58
						C384.26,76.64,384.21,76.75,384.19,76.8z"/>
					<path class="st35" d="M393.64,90.41c0,0.19-0.06,0.31-0.19,0.37c-0.13,0.06-0.28,0.09-0.44,0.09c-0.12,0-0.27-0.02-0.44-0.05
						c-0.17-0.03-0.32-0.07-0.44-0.12c-0.16-0.07-0.28-0.16-0.35-0.26c-0.07-0.1-0.12-0.21-0.15-0.33
						c-0.03-0.12-0.04-0.25-0.04-0.38s0-0.27-0.01-0.42c-0.15-2.5-0.26-4.98-0.35-7.45c-0.09-2.47-0.13-4.95-0.13-7.45
						c0-0.16,0.02-0.29,0.07-0.39c0.05-0.1,0.17-0.15,0.37-0.15c0.22,0,0.44,0.05,0.68,0.16c0.23,0.11,0.4,0.26,0.49,0.48
						c0.03,0.07,0.05,0.17,0.07,0.33c0.01,0.15,0.02,0.32,0.03,0.49c0.01,0.17,0.01,0.34,0.01,0.5c0,0.17,0,0.29,0.01,0.38
						c0.07,2.09,0.14,4.18,0.22,6.26c0.08,2.08,0.23,4.16,0.44,6.26c0.03,0.28,0.06,0.56,0.1,0.84
						C393.62,89.84,393.64,90.12,393.64,90.41z"/>
					<path class="st35" d="M398.88,90.41c0,0.19-0.07,0.31-0.19,0.37c-0.13,0.06-0.28,0.09-0.44,0.09c-0.12,0-0.27-0.02-0.44-0.05
						c-0.17-0.03-0.32-0.07-0.44-0.12c-0.16-0.07-0.28-0.16-0.35-0.26c-0.07-0.1-0.12-0.21-0.15-0.33
						c-0.03-0.12-0.04-0.25-0.04-0.38s-0.01-0.27-0.01-0.42c-0.15-2.5-0.26-4.98-0.35-7.45c-0.09-2.47-0.13-4.95-0.13-7.45
						c0-0.16,0.02-0.29,0.07-0.39c0.05-0.1,0.17-0.15,0.37-0.15c0.22,0,0.44,0.05,0.67,0.16c0.23,0.11,0.4,0.26,0.49,0.48
						c0.03,0.07,0.06,0.17,0.07,0.33c0.01,0.15,0.02,0.32,0.03,0.49c0.01,0.17,0.01,0.34,0.01,0.5c0,0.17,0,0.29,0.01,0.38
						c0.06,2.09,0.14,4.18,0.22,6.26c0.08,2.08,0.23,4.16,0.44,6.26c0.02,0.28,0.06,0.56,0.1,0.84
						C398.85,89.84,398.88,90.12,398.88,90.41z"/>
				</g>
				<g>
					<path class="st35" d="M253.03,41.96c-2.35-2.38-5.57-4.15-8.95-4.34c-3.62-0.2-7.02,1.82-9.49,4.34
						c-2.92,2.96-3.03,7.49-1.45,11.11c0.97,2.22,2.72,3.94,4.27,5.75c2.31,2.7,2.68,5.57,2.11,8.98c-0.25,1.5-0.48,3.03,0.57,4.27
						c0.25,2.19,1.51,4.11,4.01,3.84c1.81-0.2,3.7-2.29,3.74-4.23c0.72-1.16,0.51-2.53,0.29-3.87c-0.57-3.41-0.2-6.28,2.11-8.98
						c1.55-1.81,3.29-3.53,4.26-5.75C256.08,49.45,255.95,44.92,253.03,41.96z M244.28,74.66c-1.66,0.6-2.58-0.57-3.12-1.89
						c0.82,0.29,1.84,0.29,2.66,0.04c0.71,0.21,1.55,0.25,2.29,0.07C245.78,73.65,245.29,74.3,244.28,74.66z M244.05,68.59
						c-0.05,0.87-0.28,2.54,0.6,3.11c0.02,0.01,0.04,0.02,0.06,0.03c-0.02,0-0.04,0.01-0.06,0.01c-0.08-0.04-0.16-0.06-0.25-0.04
						c-0.19,0.04-0.38,0.06-0.58,0.06c-0.09,0-0.18-0.01-0.27-0.02c0.35-5.02-0.17-10.11-0.52-15.11c-0.08-1.15-0.21-2.32-0.46-3.47
						c0.44,0.04,0.95,0.07,1.51,0.08c0.06,1.33,0.19,2.61,0.14,3.49C243.98,60.68,244.27,64.64,244.05,68.59z M252.72,53.65
						c-1.99,3.42-5.49,5.62-6.16,9.76c-0.32,1.98,0.23,3.81,0.38,5.75c0.06,0.86,0.1,2.04-0.96,2.33c-0.15,0.04-0.3,0.08-0.46,0.11
						c-0.01-0.09-0.03-0.17-0.07-0.24c0.06-0.22,0-0.47-0.23-0.64c-0.11-0.08,0.11-1.83,0.14-2.14c0.08-0.87,0.19-1.74,0.25-2.62
						c0.22-3.27-0.18-6.57,0.01-9.85c0.04-0.67-0.09-1.76-0.15-2.91c2.27-0.15,4.65-0.84,4.92-3.1c0.28-2.35-2.69-3.57-4.52-2.61
						c-1.42,0.74-1.79,2.52-1.82,4.39c-0.58-0.01-1.22-0.05-1.86-0.14c-0.43-1.35-1.06-2.61-2-3.69c-1.52-1.74-4.23-0.28-3.59,1.99
						c0.49,1.76,2.59,2.56,4.42,2.9c0.72,2.75,0.71,5.66,0.99,8.48c0.34,3.4,0.2,6.82,0.43,10.22c-0.26-0.05-0.52-0.1-0.77-0.17
						c-1.06-0.29-1.03-1.48-0.96-2.33c0.15-1.94,0.7-3.78,0.38-5.75c-0.67-4.14-4.17-6.35-6.16-9.76
						c-2.02-3.46-2.17-7.67,0.59-10.79c3.05-3.44,8.49-4.21,12.63-2.56c1.47,0.59,2.92,1.36,3.98,2.56
						C254.89,45.98,254.74,50.19,252.72,53.65z M245.45,51.88c0.03-1.55,0.34-2.95,1.5-3.34c1.06-0.35,2.67,0.83,1.82,1.93
						C247.98,51.48,246.7,51.79,245.45,51.88z M240.52,51.42c-0.83-0.25-1.6-0.61-2.19-1.14c-0.46-0.42-0.37-1.19,0.12-1.56
						c0.2-0.15,0.76,0.54,0.86,0.65C239.83,49.93,240.23,50.68,240.52,51.42z"/>
					<path class="st35" d="M229.56,57.59c-1.34,0.34-2.63,1.23-3.64,2.15c-0.32,0.29,0.1,0.83,0.46,0.59
						c1.16-0.75,2.79-1.07,3.5-2.34C229.99,57.78,229.8,57.53,229.56,57.59z"/>
					<path class="st35" d="M224.57,48.83c-0.68-0.22-1.52,0.1-2.21,0.16c-0.95,0.08-1.9,0.13-2.85,0.17c-0.64,0.03-0.64,0.96,0,1
						c1.3,0.08,4.6,0.87,5.31-0.72C224.93,49.19,224.84,48.92,224.57,48.83z"/>
					<path class="st35" d="M225.79,40.42c-0.25-0.98-1.78-1.65-2.57-2.11c-0.59-0.35-1.9-1.04-2.49-0.35
						c-0.23,0.27-0.02,0.81,0.38,0.66c-0.16,0.06-0.2-0.02,0.06,0.1c0.16,0.08,0.3,0.19,0.44,0.29c0.43,0.31,0.89,0.6,1.34,0.9
						c0.61,0.41,1.5,1.3,2.31,1.21C225.62,41.07,225.89,40.79,225.79,40.42z"/>
					<path class="st35" d="M233.64,29.56c-0.13-0.44-0.52-1.32-0.92-1.74c-0.06-0.07-0.2-0.12-0.26-0.16c0,0-0.09-0.01-0.09-0.01v0
						c0-0.07-0.21-0.07-0.4,0.02c-0.16,0.08-0.2,0.27-0.21,0.44c-0.06,0.81,0.51,1.76,0.67,2.54c0.26,1.27,0.49,2.95,1.75,3.6
						c0.26,0.14,0.6-0.03,0.6-0.34C234.75,32.5,234.05,30.92,233.64,29.56z"/>
					<path class="st35" d="M247.1,28.84c0.02-1.01-0.08-2.01-0.73-2.82c-0.33-0.41-0.98,0.03-0.85,0.49
						c0.27,0.92,0.13,1.98,0.05,2.91c-0.06,0.75-0.34,1.84,0.41,2.32c0.14,0.09,0.34,0.08,0.48,0
						C247.3,31.26,247.08,29.67,247.1,28.84z"/>
					<path class="st35" d="M261.64,31.46c-0.75-0.66-1.91,0.29-2.51,0.75c-0.91,0.7-1.71,1.58-2.41,2.5
						c-0.4,0.54,0.49,1.21,0.93,0.71c0.76-0.86,1.67-1.56,2.61-2.22C260.58,32.96,262.35,32.09,261.64,31.46z"/>
					<path class="st35" d="M267.11,45.33c-1.18-1.87-4.27-0.45-6-0.67c-0.54-0.07-0.62,0.78-0.12,0.92
						c0.92,0.26,1.88,0.32,2.83,0.33c0.95,0.01,1.96,0.2,2.9,0.11C267.04,46,267.32,45.65,267.11,45.33z"/>
					<path class="st35" d="M261.4,59.49c-0.31-0.6-1.16-1.04-1.71-1.41c-0.69-0.46-1.42-0.68-2.25-0.72
						c-0.57-0.03-0.65,0.81-0.13,0.97c0.69,0.21,1.23,0.68,1.77,1.14c0.48,0.41,1.14,1,1.81,0.92
						C261.34,60.33,261.62,59.93,261.4,59.49z"/>
				</g>
			</g>
			<g>
				<g>
					<path class="st36" d="M277.15,91.06h-50.56c-3.3,0-6.22,3.07-6.22,6.37v39.02c0,3.3,2.93,5.61,6.22,5.61h14.68l-3.53,10.35
						l12.94-10.35h26.48c3.3,0,6.21-2.32,6.21-5.61V97.43C283.36,94.13,280.44,91.06,277.15,91.06z"/>
					<path class="st0" d="M270.36,119.06v-8h-4.46c-0.32-1-0.75-2.07-1.28-3l3.38-3.4l-5.58-5.6l-3.23,3.43
						c-0.95-0.52-1.83-0.93-2.83-1.23v-4.21h-7v4.28c-2,0.32-2.76,0.76-3.72,1.31l-3.59-3.26l-5.75,5.58l3.24,3.64
						c-0.54,0.98-1.04,2.46-1.33,3.46h-3.85v7h3.98c0.33,1,0.79,2.26,1.36,3.23l-3.23,3.3l5.58,5.62l3.78-3.34
						c0.98,0.52,2.53,0.94,3.53,1.22v4.97h7v-5.17c1-0.33,2.08-0.78,3.01-1.33l3.36,3.35l5.59-5.58l-3.47-3.38
						c0.5-0.94,0.9-1.89,1.18-2.89H270.36z M242.83,115.14c0-5.12,4.17-9.29,9.29-9.29c5.12,0,9.29,4.17,9.29,9.29
						c0,5.12-4.17,9.29-9.29,9.29C247,124.43,242.83,120.27,242.83,115.14z"/>
				</g>
				<g>
					<path class="st37" d="M59.11,104.06h50.56c3.3,0,6.69,2.17,6.69,5.47v39.02c0,3.3-3.39,5.51-6.69,5.51H94.99l3.53,10.35
						l-12.94-10.35H59.11c-3.3,0-5.75-2.21-5.75-5.51v-39.02C53.36,106.23,55.81,104.06,59.11,104.06z"/>
					<g>
						<g>
							<path class="st0" d="M66.92,135.14h-2.86v-12.57h2.86v5.01h4.05v-5.01h2.86v12.57h-2.86v-5.04h-4.05V135.14z"/>
							<path class="st0" d="M74.52,122.57h8.83v2.51h-2.99v10.05h-2.86v-10.05h-2.99V122.57z"/>
							<path class="st0" d="M94.57,127.69h-0.08l-2.57,7.37h-1.71l-2.57-7.37h-0.08l-0.59,7.45H84.1l1.13-12.57h3.05l2.79,7.25
								l2.79-7.25h3.05l1.13,12.57h-2.86L94.57,127.69z"/>
							<path class="st0" d="M102.43,132.63h4.33v2.51h-7.19v-12.57h2.86V132.63z"/>
						</g>
					</g>
				</g>
				<g>
					<path class="st38" d="M131.28,57.06h50.56c3.3,0,6.52,2.93,6.52,6.23v39.02c0,3.3-3.22,4.76-6.52,4.76h-14.68l3.53,10.35
						l-12.94-10.35h-26.48c-3.3,0-5.92-1.46-5.92-4.76V63.28C125.36,59.99,127.98,57.06,131.28,57.06z"/>
					<g>
						<g>
							<path class="st0" d="M147.98,86.68l1.62,3.24c0,0-1.86,1.54-5.49,1.54c-4.72,0-9.06-3.85-9.06-8.63
								c0-4.8,4.32-8.69,9.06-8.69c3.63,0,5.49,1.54,5.49,1.54l-1.62,3.24c0,0-1.34-1.03-3.28-1.03c-3.83,0-5.51,2.68-5.51,4.9
								c0,2.25,1.68,4.92,5.51,4.92C146.65,87.72,147.98,86.68,147.98,86.68z"/>
							<path class="st0" d="M162.92,75.72l-1.54,3.04c0,0-1.66-1.16-3.38-1.16c-1.3,0-1.99,0.59-1.99,1.5c0,0.93,1.58,1.6,3.49,2.41
								c1.86,0.79,3.91,2.37,3.91,4.56c0,3.99-3.04,5.39-6.3,5.39c-3.91,0-6.28-2.21-6.28-2.21l1.91-3.2c0,0,2.23,1.89,4.09,1.89
								c0.83,0,2.41-0.08,2.41-1.64c0-1.22-1.78-1.76-3.77-2.76c-2.01-0.99-3.18-2.55-3.18-4.3c0-3.12,2.76-5.11,5.45-5.11
								C160.77,74.14,162.92,75.72,162.92,75.72z"/>
							<path class="st0" d="M176.64,75.72l-1.54,3.04c0,0-1.66-1.16-3.38-1.16c-1.3,0-1.99,0.59-1.99,1.5c0,0.93,1.58,1.6,3.49,2.41
								c1.86,0.79,3.91,2.37,3.91,4.56c0,3.99-3.04,5.39-6.3,5.39c-3.91,0-6.28-2.21-6.28-2.21l1.91-3.2c0,0,2.23,1.89,4.09,1.89
								c0.83,0,2.41-0.08,2.41-1.64c0-1.22-1.78-1.76-3.77-2.76c-2.01-0.99-3.18-2.55-3.18-4.3c0-3.12,2.76-5.11,5.45-5.11
								C174.49,74.14,176.64,75.72,176.64,75.72z"/>
						</g>
					</g>
				</g>
				<g>
					<path class="st39" d="M72.07,174.06h50.56c3.3,0,6.73,2.19,6.73,5.49v39.02c0,3.3-3.43,5.5-6.73,5.5h-14.68l3.53,10.35
						l-12.94-10.35H72.07c-3.3,0-6.71-2.2-6.71-5.5v-39.02C65.36,176.24,68.77,174.06,72.07,174.06z"/>
					<g>
						<g>
							<path class="st0" d="M90.38,203.11l1.62,3.25c0,0-1.87,1.54-5.5,1.54c-4.73,0-9.07-3.85-9.07-8.64
								c0-4.81,4.32-8.71,9.07-8.71c3.63,0,5.5,1.54,5.5,1.54l-1.62,3.25c0,0-1.34-1.03-3.29-1.03c-3.83,0-5.52,2.68-5.52,4.91
								c0,2.25,1.68,4.93,5.52,4.93C89.04,204.14,90.38,203.11,90.38,203.11z"/>
							<path class="st0" d="M97.62,204.39v-3.65h-3.65v-3.1h3.65v-3.65h3.1v3.65h3.65v3.1h-3.65v3.65H97.62z"/>
							<path class="st0" d="M110.97,204.39v-3.65h-3.65v-3.1h3.65v-3.65h3.1v3.65h3.65v3.1h-3.65v3.65H110.97z"/>
						</g>
					</g>
				</g>
				<g>
					<path class="st40" d="M56.95,333.06h50.56c3.3,0,6.85-3.14,6.85-6.44V287.6c0-3.3-3.55-6.55-6.85-6.55H92.83l3.53-10.35
						l-12.94,10.35H56.95c-3.3,0-5.59,3.25-5.59,6.55v39.02C51.36,329.92,53.65,333.06,56.95,333.06z"/>
					<g>
						<g>
							<path class="st0" d="M78.89,311.84c0,3.97-2.25,6.08-6.29,6.08c-2.89,0-4.73-1.94-4.73-1.94l1.47-3.85
								c0,0,1.45,1.37,2.62,1.37c1.32,0,2.33-0.81,2.33-2.84v-13.32h4.6V311.84z"/>
							<path class="st0" d="M95.42,298.89l-1.86,3.67c0,0-2.01-1.4-4.09-1.4c-1.57,0-2.4,0.71-2.4,1.81c0,1.13,1.91,1.93,4.21,2.91
								c2.25,0.96,4.73,2.87,4.73,5.51c0,4.83-3.67,6.52-7.62,6.52c-4.73,0-7.59-2.67-7.59-2.67l2.3-3.87c0,0,2.69,2.28,4.95,2.28
								c1,0,2.92-0.1,2.92-1.98c0-1.47-2.16-2.13-4.56-3.33c-2.42-1.2-3.85-3.09-3.85-5.19c0-3.77,3.33-6.17,6.59-6.17
								C92.82,296.97,95.42,298.89,95.42,298.89z"/>
						</g>
					</g>
				</g>
			</g>
		</g>
	</g>
</g>
<g id="DESIGNED_BY_FREEPIK">
</g>
</svg>
